<svg xmlns="http://www.w3.org/2000/svg" viewBox="0 0 531.08 165.12"><defs><style>.cls-1,.cls-2,.cls-3,.cls-4,.cls-5{font-size:14px;}.cls-1,.cls-2{font-family:Corbel, Corbel;}.cls-1{letter-spacing:0em;}.cls-3,.cls-4,.cls-5{fill:#7f7f7f;font-family:ArialMT, Arial;}.cls-4{letter-spacing:0em;}.cls-5{letter-spacing:-0.02em;}.cls-6{fill:none;stroke:#a3a3a3;stroke-linejoin:round;stroke-width:0.6px;}.cls-7{fill:#e7d749;stroke:#231f20;stroke-miterlimit:10;}</style></defs><title>Asset 4</title><g id="Layer_2" data-name="Layer 2"><g id="text"><text class="cls-1" transform="translate(173.28 104.57)">Equal Interval (equal range of values)</text><text class="cls-2" transform="translate(234.22 11.57)">Natural Breaks</text><text class="cls-3" transform="translate(1.48 66.57)">0</text><text class="cls-3" transform="translate(131.13 66.57)">5</text><text class="cls-4" transform="translate(257.6 66.57)">10</text><text class="cls-4" transform="translate(387.25 66.57)">15</text><text class="cls-5" transform="translate(516.1 66.57)">20</text><text class="cls-3" transform="translate(1.48 160.57)">0</text><text class="cls-3" transform="translate(131.13 160.57)">5</text><text class="cls-4" transform="translate(257.6 160.57)">10</text><text class="cls-4" transform="translate(387.25 160.57)">15</text><text class="cls-5" transform="translate(516.1 160.57)">20</text></g><g id="boxes_and_ticks" data-name="boxes and ticks"><line class="cls-6" x1="4.5" y1="141.07" x2="523.72" y2="141.17"/><line class="cls-6" x1="134.62" y1="135.07" x2="134.5" y2="147.41"/><line class="cls-6" x1="160.62" y1="135.07" x2="160.5" y2="147.41"/><line class="cls-6" x1="186.62" y1="135.07" x2="186.5" y2="147.41"/><line class="cls-6" x1="212.62" y1="135.07" x2="212.5" y2="147.41"/><line class="cls-6" x1="238.62" y1="135.07" x2="238.5" y2="147.41"/><line class="cls-6" x1="264.62" y1="135.07" x2="264.5" y2="147.41"/><line class="cls-6" x1="290.62" y1="135.07" x2="290.5" y2="147.41"/><line class="cls-6" x1="316.62" y1="135.07" x2="316.5" y2="147.41"/><line class="cls-6" x1="342.62" y1="135.07" x2="342.5" y2="147.41"/><line class="cls-6" x1="367.62" y1="135.07" x2="367.5" y2="147.41"/><line class="cls-6" x1="393.62" y1="135.07" x2="393.5" y2="147.41"/><line class="cls-6" x1="419.62" y1="135.07" x2="419.5" y2="147.41"/><line class="cls-6" x1="445.62" y1="135.07" x2="445.5" y2="147.41"/><line class="cls-6" x1="471.62" y1="135.07" x2="471.5" y2="147.41"/><line class="cls-6" x1="497.62" y1="135.07" x2="497.5" y2="147.41"/><line class="cls-6" x1="523.62" y1="135.07" x2="523.5" y2="147.41"/><line class="cls-6" x1="108.62" y1="135.07" x2="108.5" y2="147.41"/><line class="cls-6" x1="82.62" y1="135.07" x2="82.5" y2="147.41"/><line class="cls-6" x1="56.62" y1="135.07" x2="56.5" y2="147.41"/><line class="cls-6" x1="30.62" y1="135.07" x2="30.5" y2="147.41"/><line class="cls-6" x1="5.62" y1="135.07" x2="5.5" y2="147.41"/><ellipse class="cls-6" cx="5.5" cy="129.07" rx="5" ry="4"/><ellipse class="cls-6" cx="19" cy="129.07" rx="5.5" ry="4"/><ellipse class="cls-6" cx="32.5" cy="129.07" rx="5" ry="4"/><ellipse class="cls-6" cx="57.5" cy="129.07" rx="5" ry="4"/><ellipse class="cls-6" cx="83" cy="129.07" rx="5.5" ry="4"/><ellipse class="cls-6" cx="200" cy="129.07" rx="5.5" ry="4"/><ellipse class="cls-6" cx="213" cy="129.07" rx="5.5" ry="4"/><ellipse class="cls-6" cx="238" cy="129.07" rx="5.5" ry="4"/><ellipse class="cls-6" cx="252" cy="129.07" rx="5.5" ry="4"/><ellipse class="cls-6" cx="265" cy="129.07" rx="5.5" ry="4"/><ellipse class="cls-6" cx="328.5" cy="129.07" rx="5" ry="4"/><ellipse class="cls-6" cx="342" cy="129.07" rx="5.5" ry="4"/><ellipse class="cls-6" cx="355.5" cy="129.07" rx="5" ry="4"/><ellipse class="cls-6" cx="368.5" cy="129.07" rx="5" ry="4"/><ellipse class="cls-6" cx="420.5" cy="129.07" rx="5" ry="4"/><ellipse class="cls-6" cx="433.5" cy="129.07" rx="5" ry="4"/><ellipse class="cls-6" cx="446.5" cy="129.07" rx="5" ry="4"/><ellipse class="cls-6" cx="497.5" cy="129.07" rx="5" ry="4"/><ellipse class="cls-6" cx="511" cy="129.07" rx="5.5" ry="4"/><ellipse class="cls-6" cx="523.5" cy="129.07" rx="5" ry="4"/><line class="cls-6" x1="4.5" y1="48.07" x2="523.72" y2="48.17"/><ellipse class="cls-6" cx="5.5" cy="36.07" rx="5" ry="4"/><ellipse class="cls-6" cx="19" cy="36.07" rx="5.5" ry="4"/><ellipse class="cls-6" cx="32.5" cy="36.07" rx="5" ry="4"/><ellipse class="cls-6" cx="57.5" cy="36.07" rx="5" ry="4"/><ellipse class="cls-6" cx="83" cy="36.07" rx="5.5" ry="4"/><ellipse class="cls-6" cx="200" cy="36.07" rx="5.5" ry="4"/><ellipse class="cls-6" cx="213" cy="36.07" rx="5.5" ry="4"/><ellipse class="cls-6" cx="238" cy="36.07" rx="5.5" ry="4"/><ellipse class="cls-6" cx="252" cy="36.07" rx="5.5" ry="4"/><ellipse class="cls-6" cx="265" cy="36.07" rx="5.5" ry="4"/><ellipse class="cls-6" cx="328.5" cy="36.07" rx="5" ry="4"/><ellipse class="cls-6" cx="342" cy="36.07" rx="5.5" ry="4"/><ellipse class="cls-6" cx="355.5" cy="36.07" rx="5" ry="4"/><ellipse class="cls-6" cx="368.5" cy="36.07" rx="5" ry="4"/><ellipse class="cls-6" cx="420.5" cy="36.07" rx="5" ry="4"/><ellipse class="cls-6" cx="433.5" cy="36.07" rx="5" ry="4"/><ellipse class="cls-6" cx="446.5" cy="36.07" rx="5" ry="4"/><ellipse class="cls-6" cx="497.5" cy="36.07" rx="5" ry="4"/><ellipse class="cls-6" cx="511" cy="36.07" rx="5.5" ry="4"/><ellipse class="cls-6" cx="523.5" cy="36.07" rx="5" ry="4"/><line class="cls-6" x1="134.62" y1="42.07" x2="134.5" y2="54.41"/><line class="cls-6" x1="160.62" y1="42.07" x2="160.5" y2="54.41"/><line class="cls-6" x1="186.62" y1="42.07" x2="186.5" y2="54.41"/><line class="cls-6" x1="212.62" y1="42.07" x2="212.5" y2="54.41"/><line class="cls-6" x1="238.62" y1="42.07" x2="238.5" y2="54.41"/><line class="cls-6" x1="264.62" y1="42.07" x2="264.5" y2="54.41"/><line class="cls-6" x1="290.62" y1="42.07" x2="290.5" y2="54.41"/><line class="cls-6" x1="316.62" y1="42.07" x2="316.5" y2="54.41"/><line class="cls-6" x1="342.62" y1="42.07" x2="342.5" y2="54.41"/><line class="cls-6" x1="367.62" y1="42.07" x2="367.5" y2="54.41"/><line class="cls-6" x1="393.62" y1="42.07" x2="393.5" y2="54.41"/><line class="cls-6" x1="419.62" y1="42.07" x2="419.5" y2="54.41"/><line class="cls-6" x1="445.62" y1="42.07" x2="445.5" y2="54.41"/><line class="cls-6" x1="471.62" y1="42.07" x2="471.5" y2="54.41"/><line class="cls-6" x1="497.62" y1="42.07" x2="497.5" y2="54.41"/><line class="cls-6" x1="523.62" y1="42.07" x2="523.5" y2="54.41"/><line class="cls-6" x1="108.62" y1="42.07" x2="108.5" y2="54.41"/><line class="cls-6" x1="82.62" y1="42.07" x2="82.5" y2="54.41"/><line class="cls-6" x1="56.62" y1="42.07" x2="56.5" y2="54.41"/><line class="cls-6" x1="30.62" y1="42.07" x2="30.5" y2="54.41"/><line class="cls-6" x1="5.62" y1="42.07" x2="5.5" y2="54.41"/></g><g id="balls"><ellipse class="cls-7" cx="5.5" cy="129.07" rx="5" ry="4"/><ellipse class="cls-7" cx="19" cy="129.07" rx="5.5" ry="4"/><ellipse class="cls-7" cx="32.5" cy="129.07" rx="5" ry="4"/><ellipse class="cls-7" cx="57.5" cy="129.07" rx="5" ry="4"/><ellipse class="cls-7" cx="83" cy="129.07" rx="5.5" ry="4"/><ellipse class="cls-7" cx="200" cy="129.07" rx="5.5" ry="4"/><ellipse class="cls-7" cx="213" cy="129.07" rx="5.5" ry="4"/><ellipse class="cls-7" cx="238" cy="129.07" rx="5.5" ry="4"/><ellipse class="cls-7" cx="252" cy="129.07" rx="5.5" ry="4"/><ellipse class="cls-7" cx="265" cy="129.07" rx="5.5" ry="4"/><ellipse class="cls-7" cx="328.5" cy="129.07" rx="5" ry="4"/><ellipse class="cls-7" cx="342" cy="129.07" rx="5.5" ry="4"/><ellipse class="cls-7" cx="355.5" cy="129.07" rx="5" ry="4"/><ellipse class="cls-7" cx="368.5" cy="129.07" rx="5" ry="4"/><ellipse class="cls-7" cx="420.5" cy="129.07" rx="5" ry="4"/><ellipse class="cls-7" cx="433.5" cy="129.07" rx="5" ry="4"/><ellipse class="cls-7" cx="446.5" cy="129.07" rx="5" ry="4"/><ellipse class="cls-7" cx="497.5" cy="129.07" rx="5" ry="4"/><ellipse class="cls-7" cx="511" cy="129.07" rx="5.5" ry="4"/><ellipse class="cls-7" cx="523.5" cy="129.07" rx="5" ry="4"/><ellipse class="cls-7" cx="5.5" cy="36.07" rx="5" ry="4"/><ellipse class="cls-7" cx="19" cy="36.07" rx="5.5" ry="4"/><ellipse class="cls-7" cx="32.5" cy="36.07" rx="5" ry="4"/><ellipse class="cls-7" cx="57.5" cy="36.07" rx="5" ry="4"/><ellipse class="cls-7" cx="83" cy="36.07" rx="5.5" ry="4"/><ellipse class="cls-7" cx="200" cy="36.07" rx="5.5" ry="4"/><ellipse class="cls-7" cx="213" cy="36.07" rx="5.5" ry="4"/><ellipse class="cls-7" cx="238" cy="36.07" rx="5.5" ry="4"/><ellipse class="cls-7" cx="252" cy="36.07" rx="5.5" ry="4"/><ellipse class="cls-7" cx="265" cy="36.07" rx="5.5" ry="4"/><ellipse class="cls-7" cx="328.5" cy="36.07" rx="5" ry="4"/><ellipse class="cls-7" cx="342" cy="36.07" rx="5.5" ry="4"/><ellipse class="cls-7" cx="355.5" cy="36.07" rx="5" ry="4"/><ellipse class="cls-7" cx="368.5" cy="36.07" rx="5" ry="4"/><ellipse class="cls-7" cx="420.5" cy="36.07" rx="5" ry="4"/><ellipse class="cls-7" cx="433.5" cy="36.07" rx="5" ry="4"/><ellipse class="cls-7" cx="446.5" cy="36.07" rx="5" ry="4"/><ellipse class="cls-7" cx="497.5" cy="36.07" rx="5" ry="4"/><ellipse class="cls-7" cx="511" cy="36.07" rx="5.5" ry="4"/><ellipse class="cls-7" cx="523.5" cy="36.07" rx="5" ry="4"/></g></g></svg>