<svg xmlns="http://www.w3.org/2000/svg" viewBox="0 0 531.08 39.55"><defs><style>.cls-1,.cls-2,.cls-3{font-size:14px;font-family:ArialMT, Arial;}.cls-2{letter-spacing:0em;}.cls-3{letter-spacing:-0.02em;}.cls-4{fill:none;stroke:#6d6d6d;stroke-linejoin:round;}.cls-5{fill:#bf2026;stroke:#231f20;stroke-miterlimit:10;}</style></defs><title>Asset 1</title><g id="Layer_2" data-name="Layer 2"><g id="text"><text class="cls-1" transform="translate(1.48 35)">0</text><text class="cls-1" transform="translate(131.13 35)">5</text><text class="cls-2" transform="translate(257.6 35)">10</text><text class="cls-2" transform="translate(387.25 35)">15</text><text class="cls-3" transform="translate(516.1 35)">20</text></g><g id="boxes_and_ticks" data-name="boxes and ticks"><line class="cls-4" x1="4.5" y1="16.5" x2="523.72" y2="16.6"/><ellipse class="cls-4" cx="5.5" cy="4.5" rx="5" ry="4"/><ellipse class="cls-4" cx="19" cy="4.5" rx="5.5" ry="4"/><ellipse class="cls-4" cx="32.5" cy="4.5" rx="5" ry="4"/><ellipse class="cls-4" cx="57.5" cy="4.5" rx="5" ry="4"/><ellipse class="cls-4" cx="83" cy="4.5" rx="5.5" ry="4"/><ellipse class="cls-4" cx="200" cy="4.5" rx="5.5" ry="4"/><ellipse class="cls-4" cx="213" cy="4.5" rx="5.5" ry="4"/><ellipse class="cls-4" cx="238" cy="4.5" rx="5.5" ry="4"/><ellipse class="cls-4" cx="252" cy="4.5" rx="5.5" ry="4"/><ellipse class="cls-4" cx="265" cy="4.5" rx="5.5" ry="4"/><ellipse class="cls-4" cx="328.5" cy="4.5" rx="5" ry="4"/><ellipse class="cls-4" cx="342" cy="4.5" rx="5.5" ry="4"/><ellipse class="cls-4" cx="355.5" cy="4.5" rx="5" ry="4"/><ellipse class="cls-4" cx="368.5" cy="4.5" rx="5" ry="4"/><ellipse class="cls-4" cx="420.5" cy="4.5" rx="5" ry="4"/><ellipse class="cls-4" cx="433.5" cy="4.5" rx="5" ry="4"/><ellipse class="cls-4" cx="446.5" cy="4.5" rx="5" ry="4"/><ellipse class="cls-4" cx="497.5" cy="4.5" rx="5" ry="4"/><ellipse class="cls-4" cx="511" cy="4.5" rx="5.5" ry="4"/><ellipse class="cls-4" cx="523.5" cy="4.5" rx="5" ry="4"/><line class="cls-4" x1="134.62" y1="10.5" x2="134.5" y2="22.84"/><line class="cls-4" x1="160.62" y1="10.5" x2="160.5" y2="22.84"/><line class="cls-4" x1="186.62" y1="10.5" x2="186.5" y2="22.84"/><line class="cls-4" x1="212.62" y1="10.5" x2="212.5" y2="22.84"/><line class="cls-4" x1="238.62" y1="10.5" x2="238.5" y2="22.84"/><line class="cls-4" x1="264.62" y1="10.5" x2="264.5" y2="22.84"/><line class="cls-4" x1="290.62" y1="10.5" x2="290.5" y2="22.84"/><line class="cls-4" x1="316.62" y1="10.5" x2="316.5" y2="22.84"/><line class="cls-4" x1="342.62" y1="10.5" x2="342.5" y2="22.84"/><line class="cls-4" x1="367.62" y1="10.5" x2="367.5" y2="22.84"/><line class="cls-4" x1="393.62" y1="10.5" x2="393.5" y2="22.84"/><line class="cls-4" x1="419.62" y1="10.5" x2="419.5" y2="22.84"/><line class="cls-4" x1="445.62" y1="10.5" x2="445.5" y2="22.84"/><line class="cls-4" x1="471.62" y1="10.5" x2="471.5" y2="22.84"/><line class="cls-4" x1="497.62" y1="10.5" x2="497.5" y2="22.84"/><line class="cls-4" x1="523.62" y1="10.5" x2="523.5" y2="22.84"/><line class="cls-4" x1="108.62" y1="10.5" x2="108.5" y2="22.84"/><line class="cls-4" x1="82.62" y1="10.5" x2="82.5" y2="22.84"/><line class="cls-4" x1="56.62" y1="10.5" x2="56.5" y2="22.84"/><line class="cls-4" x1="30.62" y1="10.5" x2="30.5" y2="22.84"/><line class="cls-4" x1="5.62" y1="10.5" x2="5.5" y2="22.84"/></g><g id="balls"><ellipse class="cls-5" cx="5.5" cy="4.5" rx="5" ry="4"/><ellipse class="cls-5" cx="19" cy="4.5" rx="5.5" ry="4"/><ellipse class="cls-5" cx="32.5" cy="4.5" rx="5" ry="4"/><ellipse class="cls-5" cx="57.5" cy="4.5" rx="5" ry="4"/><ellipse class="cls-5" cx="83" cy="4.5" rx="5.5" ry="4"/><ellipse class="cls-5" cx="200" cy="4.5" rx="5.5" ry="4"/><ellipse class="cls-5" cx="213" cy="4.5" rx="5.5" ry="4"/><ellipse class="cls-5" cx="238" cy="4.5" rx="5.5" ry="4"/><ellipse class="cls-5" cx="252" cy="4.5" rx="5.5" ry="4"/><ellipse class="cls-5" cx="265" cy="4.5" rx="5.5" ry="4"/><ellipse class="cls-5" cx="328.5" cy="4.5" rx="5" ry="4"/><ellipse class="cls-5" cx="342" cy="4.5" rx="5.5" ry="4"/><ellipse class="cls-5" cx="355.5" cy="4.5" rx="5" ry="4"/><ellipse class="cls-5" cx="368.5" cy="4.5" rx="5" ry="4"/><ellipse class="cls-5" cx="420.5" cy="4.5" rx="5" ry="4"/><ellipse class="cls-5" cx="433.5" cy="4.5" rx="5" ry="4"/><ellipse class="cls-5" cx="446.5" cy="4.5" rx="5" ry="4"/><ellipse class="cls-5" cx="497.5" cy="4.5" rx="5" ry="4"/><ellipse class="cls-5" cx="511" cy="4.5" rx="5.5" ry="4"/><ellipse class="cls-5" cx="523.5" cy="4.5" rx="5" ry="4"/></g></g></svg>