<?xml version="1.0" encoding="utf-8"?>
<!-- Generator: Adobe Illustrator 25.0.0, SVG Export Plug-In . SVG Version: 6.00 Build 0)  -->
<svg version="1.1" id="Layer_1" xmlns="http://www.w3.org/2000/svg" xmlns:xlink="http://www.w3.org/1999/xlink" x="0px" y="0px"
	 viewBox="0 0 531.1 381.5" style="enable-background:new 0 0 531.1 381.5;" xml:space="preserve">
<style type="text/css">
	.st0{opacity:0.5;fill:#FDCD9A;enable-background:new    ;}
	.st1{opacity:0.5;fill:#F05354;enable-background:new    ;}
	.st2{opacity:0.5;fill:#CB2026;enable-background:new    ;}
	.st3{opacity:0.5;fill:#7F1416;enable-background:new    ;}
	.st4{opacity:0.5;fill:#F79869;enable-background:new    ;}
	.st5{font-family:'Corbel';}
	.st6{font-size:14px;}
	.st7{font-family:'ArialMT';}
	.st8{font-size:12px;}
	.st9{fill:#7F7F7F;}
	.st10{fill:none;stroke:#A3A3A3;stroke-width:0.6;stroke-linejoin:round;}
	.st11{fill:#E7D749;stroke:#231F20;stroke-miterlimit:10;}
	.st12{fill:none;stroke:#4B1214;stroke-width:2;stroke-linejoin:round;stroke-dasharray:6,2;}
	.st13{fill:none;stroke:#4B1214;stroke-width:2;stroke-linejoin:round;stroke-dasharray:2,2;}
</style>
<g id="Layer_2_1_">
	<g id="colored_boxes">
		<rect x="4.5" y="20.1" class="st0" width="87" height="34"/>
		<rect x="275.5" y="20.1" class="st1" width="103" height="34"/>
		<rect x="378.5" y="20.1" class="st2" width="77" height="34"/>
		<rect x="455.5" y="20.1" class="st3" width="69" height="33.8"/>
		<rect x="91.5" y="20.1" class="st4" width="184" height="34"/>
		<rect x="4.5" y="114.1" class="st0" width="104" height="34"/>
		<rect x="213.4" y="114.1" class="st1" width="103.1" height="34"/>
		<rect x="316.5" y="114.1" class="st2" width="103" height="34"/>
		<rect x="419.6" y="114.1" class="st3" width="104.9" height="33.8"/>
		<rect x="108.5" y="114.1" class="st4" width="105.2" height="34"/>
		<rect x="5.5" y="218.1" class="st0" width="60" height="34.9"/>
		<rect x="244.5" y="218.1" class="st1" width="105" height="34.9"/>
		<rect x="349.5" y="218.1" class="st2" width="92" height="34.9"/>
		<rect x="441.5" y="218.1" class="st3" width="84" height="34.9"/>
		<rect x="65.5" y="218.1" class="st4" width="179" height="34.9"/>
		<rect x="4.5" y="318.1" class="st4" width="87" height="35"/>
		<rect x="278.5" y="318.1" class="st2" width="176" height="35"/>
		<rect x="454.5" y="318.1" class="st3" width="70" height="35"/>
		<rect x="91.5" y="318.1" class="st1" width="187" height="35"/>
	</g>
	<g id="text">
		<text transform="matrix(1 0 0 1 170.09 208.57)" class="st5 st6">Quantile (equal number of features)</text>
		<text transform="matrix(1 0 0 1 173.28 104.57)" class="st5 st6">Equal Interval (equal range of values)</text>
		<text transform="matrix(1 0 0 1 234.22 11.57)" class="st5 st6">Natural Breaks</text>
		<text transform="matrix(1 0 0 1 217.3 306.57)" class="st5 st6">Standard Deviation</text>
		<text transform="matrix(1 0 0 1 264.6 377.57)" class="st7 st8">mean</text>
		<text transform="matrix(1 0 0 1 79.34 377.57)" class="st7 st8">-1 SD</text>
		<text transform="matrix(1 0 0 1 442.03 377.57)" class="st7 st8">+1 SD</text>
		<text transform="matrix(1 0 0 1 1.48 66.57)" class="st9 st7 st6">0</text>
		<text transform="matrix(1 0 0 1 131.13 66.57)" class="st9 st7 st6">5</text>
		<text transform="matrix(1 0 0 1 257.6 66.57)" class="st9 st7 st6">10</text>
		<text transform="matrix(1 0 0 1 387.25 66.57)" class="st9 st7 st6">15</text>
		<text transform="matrix(1 0 0 1 516.1 66.57)" class="st9 st7 st6">20</text>
		<text transform="matrix(1 0 0 1 1.48 160.57)" class="st9 st7 st6">0</text>
		<text transform="matrix(1 0 0 1 131.13 160.57)" class="st9 st7 st6">5</text>
		<text transform="matrix(1 0 0 1 257.6 160.57)" class="st9 st7 st6">10</text>
		<text transform="matrix(1 0 0 1 387.25 160.57)" class="st9 st7 st6">15</text>
		<text transform="matrix(1 0 0 1 516.1 160.57)" class="st9 st7 st6">20</text>
		<text transform="matrix(1 0 0 1 1.48 264.57)" class="st9 st7 st6">0</text>
		<text transform="matrix(1 0 0 1 131.13 264.57)" class="st9 st7 st6">5</text>
		<text transform="matrix(1 0 0 1 257.6 264.57)" class="st9 st7 st6">10</text>
		<text transform="matrix(1 0 0 1 387.25 264.57)" class="st9 st7 st6">15</text>
		<text transform="matrix(1 0 0 1 516.1 264.57)" class="st9 st7 st6">20</text>
		<text transform="matrix(1 0 0 1 1.48 365.57)" class="st9 st7 st6">0</text>
		<text transform="matrix(1 0 0 1 131.13 365.57)" class="st9 st7 st6">5</text>
		<text transform="matrix(1 0 0 1 257.6 365.57)" class="st9 st7 st6">10</text>
		<text transform="matrix(1 0 0 1 387.25 365.57)" class="st9 st7 st6">15</text>
		<text transform="matrix(1 0 0 1 516.1 365.57)" class="st9 st7 st6">20</text>
	</g>
	<g id="boxes_and_ticks">
		<line class="st10" x1="4.5" y1="246.1" x2="523.7" y2="246.2"/>
		<line class="st10" x1="134.6" y1="240.1" x2="134.5" y2="252.4"/>
		<line class="st10" x1="160.6" y1="240.1" x2="160.5" y2="252.4"/>
		<line class="st10" x1="186.6" y1="240.1" x2="186.5" y2="252.4"/>
		<line class="st10" x1="212.6" y1="240.1" x2="212.5" y2="252.4"/>
		<line class="st10" x1="238.6" y1="240.1" x2="238.5" y2="252.4"/>
		<line class="st10" x1="264.6" y1="240.1" x2="264.5" y2="252.4"/>
		<line class="st10" x1="290.6" y1="240.1" x2="290.5" y2="252.4"/>
		<line class="st10" x1="316.6" y1="240.1" x2="316.5" y2="252.4"/>
		<line class="st10" x1="342.6" y1="240.1" x2="342.5" y2="252.4"/>
		<line class="st10" x1="367.6" y1="240.1" x2="367.5" y2="252.4"/>
		<line class="st10" x1="393.6" y1="240.1" x2="393.5" y2="252.4"/>
		<line class="st10" x1="419.6" y1="240.1" x2="419.5" y2="252.4"/>
		<line class="st10" x1="445.6" y1="240.1" x2="445.5" y2="252.4"/>
		<line class="st10" x1="471.6" y1="240.1" x2="471.5" y2="252.4"/>
		<line class="st10" x1="497.6" y1="240.1" x2="497.5" y2="252.4"/>
		<line class="st10" x1="523.6" y1="240.1" x2="523.5" y2="252.4"/>
		<line class="st10" x1="108.6" y1="240.1" x2="108.5" y2="252.4"/>
		<line class="st10" x1="82.6" y1="240.1" x2="82.5" y2="252.4"/>
		<line class="st10" x1="56.6" y1="240.1" x2="56.5" y2="252.4"/>
		<line class="st10" x1="30.6" y1="240.1" x2="30.5" y2="252.4"/>
		<line class="st10" x1="5.6" y1="240.1" x2="5.5" y2="252.4"/>
		<ellipse class="st10" cx="5.5" cy="233.6" rx="5" ry="4.5"/>
		<ellipse class="st10" cx="19" cy="233.6" rx="5.5" ry="4.5"/>
		<ellipse class="st10" cx="32.5" cy="233.6" rx="5" ry="4.5"/>
		<ellipse class="st10" cx="57.5" cy="233.6" rx="5" ry="4.5"/>
		<ellipse class="st10" cx="83" cy="233.6" rx="5.5" ry="4.5"/>
		<ellipse class="st10" cx="200" cy="233.6" rx="5.5" ry="4.5"/>
		<ellipse class="st10" cx="213" cy="233.6" rx="5.5" ry="4.5"/>
		<ellipse class="st10" cx="238" cy="233.6" rx="5.5" ry="4.5"/>
		<ellipse class="st10" cx="252" cy="233.6" rx="5.5" ry="4.5"/>
		<ellipse class="st10" cx="265" cy="233.6" rx="5.5" ry="4.5"/>
		<ellipse class="st10" cx="328.5" cy="233.6" rx="5" ry="4.5"/>
		<ellipse class="st10" cx="342" cy="233.6" rx="5.5" ry="4.5"/>
		<ellipse class="st10" cx="355.5" cy="233.6" rx="5" ry="4.5"/>
		<ellipse class="st10" cx="368.5" cy="233.6" rx="5" ry="4.5"/>
		<ellipse class="st10" cx="420.5" cy="233.6" rx="5" ry="4.5"/>
		<ellipse class="st10" cx="433.5" cy="233.6" rx="5" ry="4.5"/>
		<ellipse class="st10" cx="446.5" cy="233.6" rx="5" ry="4.5"/>
		<ellipse class="st10" cx="497.5" cy="233.6" rx="5" ry="4.5"/>
		<ellipse class="st10" cx="511" cy="233.6" rx="5.5" ry="4.5"/>
		<ellipse class="st10" cx="523.5" cy="233.6" rx="5" ry="4.5"/>
		<line class="st10" x1="4.5" y1="141.1" x2="523.7" y2="141.2"/>
		<line class="st10" x1="134.6" y1="135.1" x2="134.5" y2="147.4"/>
		<line class="st10" x1="160.6" y1="135.1" x2="160.5" y2="147.4"/>
		<line class="st10" x1="186.6" y1="135.1" x2="186.5" y2="147.4"/>
		<line class="st10" x1="212.6" y1="135.1" x2="212.5" y2="147.4"/>
		<line class="st10" x1="238.6" y1="135.1" x2="238.5" y2="147.4"/>
		<line class="st10" x1="264.6" y1="135.1" x2="264.5" y2="147.4"/>
		<line class="st10" x1="290.6" y1="135.1" x2="290.5" y2="147.4"/>
		<line class="st10" x1="316.6" y1="135.1" x2="316.5" y2="147.4"/>
		<line class="st10" x1="342.6" y1="135.1" x2="342.5" y2="147.4"/>
		<line class="st10" x1="367.6" y1="135.1" x2="367.5" y2="147.4"/>
		<line class="st10" x1="393.6" y1="135.1" x2="393.5" y2="147.4"/>
		<line class="st10" x1="419.6" y1="135.1" x2="419.5" y2="147.4"/>
		<line class="st10" x1="445.6" y1="135.1" x2="445.5" y2="147.4"/>
		<line class="st10" x1="471.6" y1="135.1" x2="471.5" y2="147.4"/>
		<line class="st10" x1="497.6" y1="135.1" x2="497.5" y2="147.4"/>
		<line class="st10" x1="523.6" y1="135.1" x2="523.5" y2="147.4"/>
		<line class="st10" x1="108.6" y1="135.1" x2="108.5" y2="147.4"/>
		<line class="st10" x1="82.6" y1="135.1" x2="82.5" y2="147.4"/>
		<line class="st10" x1="56.6" y1="135.1" x2="56.5" y2="147.4"/>
		<line class="st10" x1="30.6" y1="135.1" x2="30.5" y2="147.4"/>
		<line class="st10" x1="5.6" y1="135.1" x2="5.5" y2="147.4"/>
		<ellipse class="st10" cx="5.5" cy="129.1" rx="5" ry="4"/>
		<ellipse class="st10" cx="19" cy="129.1" rx="5.5" ry="4"/>
		<ellipse class="st10" cx="32.5" cy="129.1" rx="5" ry="4"/>
		<ellipse class="st10" cx="57.5" cy="129.1" rx="5" ry="4"/>
		<ellipse class="st10" cx="83" cy="129.1" rx="5.5" ry="4"/>
		<ellipse class="st10" cx="200" cy="129.1" rx="5.5" ry="4"/>
		<ellipse class="st10" cx="213" cy="129.1" rx="5.5" ry="4"/>
		<ellipse class="st10" cx="238" cy="129.1" rx="5.5" ry="4"/>
		<ellipse class="st10" cx="252" cy="129.1" rx="5.5" ry="4"/>
		<ellipse class="st10" cx="265" cy="129.1" rx="5.5" ry="4"/>
		<ellipse class="st10" cx="328.5" cy="129.1" rx="5" ry="4"/>
		<ellipse class="st10" cx="342" cy="129.1" rx="5.5" ry="4"/>
		<ellipse class="st10" cx="355.5" cy="129.1" rx="5" ry="4"/>
		<ellipse class="st10" cx="368.5" cy="129.1" rx="5" ry="4"/>
		<ellipse class="st10" cx="420.5" cy="129.1" rx="5" ry="4"/>
		<ellipse class="st10" cx="433.5" cy="129.1" rx="5" ry="4"/>
		<ellipse class="st10" cx="446.5" cy="129.1" rx="5" ry="4"/>
		<ellipse class="st10" cx="497.5" cy="129.1" rx="5" ry="4"/>
		<ellipse class="st10" cx="511" cy="129.1" rx="5.5" ry="4"/>
		<ellipse class="st10" cx="523.5" cy="129.1" rx="5" ry="4"/>
		<line class="st10" x1="4.5" y1="48.1" x2="523.7" y2="48.2"/>
		<ellipse class="st10" cx="5.5" cy="36.1" rx="5" ry="4"/>
		<ellipse class="st10" cx="19" cy="36.1" rx="5.5" ry="4"/>
		<ellipse class="st10" cx="32.5" cy="36.1" rx="5" ry="4"/>
		<ellipse class="st10" cx="57.5" cy="36.1" rx="5" ry="4"/>
		<ellipse class="st10" cx="83" cy="36.1" rx="5.5" ry="4"/>
		<ellipse class="st10" cx="200" cy="36.1" rx="5.5" ry="4"/>
		<ellipse class="st10" cx="213" cy="36.1" rx="5.5" ry="4"/>
		<ellipse class="st10" cx="238" cy="36.1" rx="5.5" ry="4"/>
		<ellipse class="st10" cx="252" cy="36.1" rx="5.5" ry="4"/>
		<ellipse class="st10" cx="265" cy="36.1" rx="5.5" ry="4"/>
		<ellipse class="st10" cx="328.5" cy="36.1" rx="5" ry="4"/>
		<ellipse class="st10" cx="342" cy="36.1" rx="5.5" ry="4"/>
		<ellipse class="st10" cx="355.5" cy="36.1" rx="5" ry="4"/>
		<ellipse class="st10" cx="368.5" cy="36.1" rx="5" ry="4"/>
		<ellipse class="st10" cx="420.5" cy="36.1" rx="5" ry="4"/>
		<ellipse class="st10" cx="433.5" cy="36.1" rx="5" ry="4"/>
		<ellipse class="st10" cx="446.5" cy="36.1" rx="5" ry="4"/>
		<ellipse class="st10" cx="497.5" cy="36.1" rx="5" ry="4"/>
		<ellipse class="st10" cx="511" cy="36.1" rx="5.5" ry="4"/>
		<ellipse class="st10" cx="523.5" cy="36.1" rx="5" ry="4"/>
		<line class="st10" x1="4.5" y1="346.1" x2="523.7" y2="346.2"/>
		<line class="st10" x1="134.6" y1="340.1" x2="134.5" y2="352.4"/>
		<line class="st10" x1="160.6" y1="340.1" x2="160.5" y2="352.4"/>
		<line class="st10" x1="186.6" y1="340.1" x2="186.5" y2="352.4"/>
		<line class="st10" x1="212.6" y1="340.1" x2="212.5" y2="352.4"/>
		<line class="st10" x1="238.6" y1="340.1" x2="238.5" y2="352.4"/>
		<line class="st10" x1="264.6" y1="340.1" x2="264.5" y2="352.4"/>
		<line class="st10" x1="290.6" y1="340.1" x2="290.5" y2="352.4"/>
		<line class="st10" x1="316.6" y1="340.1" x2="316.5" y2="352.4"/>
		<line class="st10" x1="342.6" y1="340.1" x2="342.5" y2="352.4"/>
		<line class="st10" x1="367.6" y1="340.1" x2="367.5" y2="352.4"/>
		<line class="st10" x1="393.6" y1="340.1" x2="393.5" y2="352.4"/>
		<line class="st10" x1="419.6" y1="340.1" x2="419.5" y2="352.4"/>
		<line class="st10" x1="445.6" y1="340.1" x2="445.5" y2="352.4"/>
		<line class="st10" x1="471.6" y1="340.1" x2="471.5" y2="352.4"/>
		<line class="st10" x1="497.6" y1="340.1" x2="497.5" y2="352.4"/>
		<line class="st10" x1="523.6" y1="340.1" x2="523.5" y2="352.4"/>
		<line class="st10" x1="108.6" y1="340.1" x2="108.5" y2="352.4"/>
		<line class="st10" x1="82.6" y1="340.1" x2="82.5" y2="352.4"/>
		<line class="st10" x1="56.6" y1="340.1" x2="56.5" y2="352.4"/>
		<line class="st10" x1="30.6" y1="340.1" x2="30.5" y2="352.4"/>
		<line class="st10" x1="5.6" y1="340.1" x2="5.5" y2="352.4"/>
		<ellipse class="st10" cx="5.5" cy="333.6" rx="5" ry="4.5"/>
		<ellipse class="st10" cx="19" cy="333.6" rx="5.5" ry="4.5"/>
		<ellipse class="st10" cx="32.5" cy="333.6" rx="5" ry="4.5"/>
		<ellipse class="st10" cx="57.5" cy="333.6" rx="5" ry="4.5"/>
		<ellipse class="st10" cx="83" cy="333.6" rx="5.5" ry="4.5"/>
		<ellipse class="st10" cx="200" cy="333.6" rx="5.5" ry="4.5"/>
		<ellipse class="st10" cx="213" cy="333.6" rx="5.5" ry="4.5"/>
		<ellipse class="st10" cx="238" cy="333.6" rx="5.5" ry="4.5"/>
		<ellipse class="st10" cx="252" cy="333.6" rx="5.5" ry="4.5"/>
		<ellipse class="st10" cx="265" cy="333.6" rx="5.5" ry="4.5"/>
		<ellipse class="st10" cx="328.5" cy="333.6" rx="5" ry="4.5"/>
		<ellipse class="st10" cx="342" cy="333.6" rx="5.5" ry="4.5"/>
		<ellipse class="st10" cx="355.5" cy="333.6" rx="5" ry="4.5"/>
		<ellipse class="st10" cx="368.5" cy="333.6" rx="5" ry="4.5"/>
		<ellipse class="st10" cx="420.5" cy="333.6" rx="5" ry="4.5"/>
		<ellipse class="st10" cx="433.5" cy="333.6" rx="5" ry="4.5"/>
		<ellipse class="st10" cx="446.5" cy="333.6" rx="5" ry="4.5"/>
		<ellipse class="st10" cx="497.5" cy="333.6" rx="5" ry="4.5"/>
		<ellipse class="st10" cx="511" cy="333.6" rx="5.5" ry="4.5"/>
		<ellipse class="st10" cx="523.5" cy="333.6" rx="5" ry="4.5"/>
		<line class="st10" x1="134.6" y1="42.1" x2="134.5" y2="54.4"/>
		<line class="st10" x1="160.6" y1="42.1" x2="160.5" y2="54.4"/>
		<line class="st10" x1="186.6" y1="42.1" x2="186.5" y2="54.4"/>
		<line class="st10" x1="212.6" y1="42.1" x2="212.5" y2="54.4"/>
		<line class="st10" x1="238.6" y1="42.1" x2="238.5" y2="54.4"/>
		<line class="st10" x1="264.6" y1="42.1" x2="264.5" y2="54.4"/>
		<line class="st10" x1="290.6" y1="42.1" x2="290.5" y2="54.4"/>
		<line class="st10" x1="316.6" y1="42.1" x2="316.5" y2="54.4"/>
		<line class="st10" x1="342.6" y1="42.1" x2="342.5" y2="54.4"/>
		<line class="st10" x1="367.6" y1="42.1" x2="367.5" y2="54.4"/>
		<line class="st10" x1="393.6" y1="42.1" x2="393.5" y2="54.4"/>
		<line class="st10" x1="419.6" y1="42.1" x2="419.5" y2="54.4"/>
		<line class="st10" x1="445.6" y1="42.1" x2="445.5" y2="54.4"/>
		<line class="st10" x1="471.6" y1="42.1" x2="471.5" y2="54.4"/>
		<line class="st10" x1="497.6" y1="42.1" x2="497.5" y2="54.4"/>
		<line class="st10" x1="523.6" y1="42.1" x2="523.5" y2="54.4"/>
		<line class="st10" x1="108.6" y1="42.1" x2="108.5" y2="54.4"/>
		<line class="st10" x1="82.6" y1="42.1" x2="82.5" y2="54.4"/>
		<line class="st10" x1="56.6" y1="42.1" x2="56.5" y2="54.4"/>
		<line class="st10" x1="30.6" y1="42.1" x2="30.5" y2="54.4"/>
		<line class="st10" x1="5.6" y1="42.1" x2="5.5" y2="54.4"/>
	</g>
	<g id="balls">
		<ellipse class="st11" cx="5.5" cy="233.6" rx="5" ry="4.5"/>
		<ellipse class="st11" cx="19" cy="233.6" rx="5.5" ry="4.5"/>
		<ellipse class="st11" cx="32.5" cy="233.6" rx="5" ry="4.5"/>
		<ellipse class="st11" cx="57.5" cy="233.6" rx="5" ry="4.5"/>
		<ellipse class="st11" cx="83" cy="233.6" rx="5.5" ry="4.5"/>
		<ellipse class="st11" cx="200" cy="233.6" rx="5.5" ry="4.5"/>
		<ellipse class="st11" cx="213" cy="233.6" rx="5.5" ry="4.5"/>
		<ellipse class="st11" cx="238" cy="233.6" rx="5.5" ry="4.5"/>
		<ellipse class="st11" cx="252" cy="233.6" rx="5.5" ry="4.5"/>
		<ellipse class="st11" cx="265" cy="233.6" rx="5.5" ry="4.5"/>
		<ellipse class="st11" cx="328.5" cy="233.6" rx="5" ry="4.5"/>
		<ellipse class="st11" cx="342" cy="233.6" rx="5.5" ry="4.5"/>
		<ellipse class="st11" cx="355.5" cy="233.6" rx="5" ry="4.5"/>
		<ellipse class="st11" cx="368.5" cy="233.6" rx="5" ry="4.5"/>
		<ellipse class="st11" cx="420.5" cy="233.6" rx="5" ry="4.5"/>
		<ellipse class="st11" cx="433.5" cy="233.6" rx="5" ry="4.5"/>
		<ellipse class="st11" cx="446.5" cy="233.6" rx="5" ry="4.5"/>
		<ellipse class="st11" cx="497.5" cy="233.6" rx="5" ry="4.5"/>
		<ellipse class="st11" cx="511" cy="233.6" rx="5.5" ry="4.5"/>
		<ellipse class="st11" cx="523.5" cy="233.6" rx="5" ry="4.5"/>
		<ellipse class="st11" cx="5.5" cy="129.1" rx="5" ry="4"/>
		<ellipse class="st11" cx="19" cy="129.1" rx="5.5" ry="4"/>
		<ellipse class="st11" cx="32.5" cy="129.1" rx="5" ry="4"/>
		<ellipse class="st11" cx="57.5" cy="129.1" rx="5" ry="4"/>
		<ellipse class="st11" cx="83" cy="129.1" rx="5.5" ry="4"/>
		<ellipse class="st11" cx="200" cy="129.1" rx="5.5" ry="4"/>
		<ellipse class="st11" cx="213" cy="129.1" rx="5.5" ry="4"/>
		<ellipse class="st11" cx="238" cy="129.1" rx="5.5" ry="4"/>
		<ellipse class="st11" cx="252" cy="129.1" rx="5.5" ry="4"/>
		<ellipse class="st11" cx="265" cy="129.1" rx="5.5" ry="4"/>
		<ellipse class="st11" cx="328.5" cy="129.1" rx="5" ry="4"/>
		<ellipse class="st11" cx="342" cy="129.1" rx="5.5" ry="4"/>
		<ellipse class="st11" cx="355.5" cy="129.1" rx="5" ry="4"/>
		<ellipse class="st11" cx="368.5" cy="129.1" rx="5" ry="4"/>
		<ellipse class="st11" cx="420.5" cy="129.1" rx="5" ry="4"/>
		<ellipse class="st11" cx="433.5" cy="129.1" rx="5" ry="4"/>
		<ellipse class="st11" cx="446.5" cy="129.1" rx="5" ry="4"/>
		<ellipse class="st11" cx="497.5" cy="129.1" rx="5" ry="4"/>
		<ellipse class="st11" cx="511" cy="129.1" rx="5.5" ry="4"/>
		<ellipse class="st11" cx="523.5" cy="129.1" rx="5" ry="4"/>
		<ellipse class="st11" cx="5.5" cy="36.1" rx="5" ry="4"/>
		<ellipse class="st11" cx="19" cy="36.1" rx="5.5" ry="4"/>
		<ellipse class="st11" cx="32.5" cy="36.1" rx="5" ry="4"/>
		<ellipse class="st11" cx="57.5" cy="36.1" rx="5" ry="4"/>
		<ellipse class="st11" cx="83" cy="36.1" rx="5.5" ry="4"/>
		<ellipse class="st11" cx="200" cy="36.1" rx="5.5" ry="4"/>
		<ellipse class="st11" cx="213" cy="36.1" rx="5.5" ry="4"/>
		<ellipse class="st11" cx="238" cy="36.1" rx="5.5" ry="4"/>
		<ellipse class="st11" cx="252" cy="36.1" rx="5.5" ry="4"/>
		<ellipse class="st11" cx="265" cy="36.1" rx="5.5" ry="4"/>
		<ellipse class="st11" cx="328.5" cy="36.1" rx="5" ry="4"/>
		<ellipse class="st11" cx="342" cy="36.1" rx="5.5" ry="4"/>
		<ellipse class="st11" cx="355.5" cy="36.1" rx="5" ry="4"/>
		<ellipse class="st11" cx="368.5" cy="36.1" rx="5" ry="4"/>
		<ellipse class="st11" cx="420.5" cy="36.1" rx="5" ry="4"/>
		<ellipse class="st11" cx="433.5" cy="36.1" rx="5" ry="4"/>
		<ellipse class="st11" cx="446.5" cy="36.1" rx="5" ry="4"/>
		<ellipse class="st11" cx="497.5" cy="36.1" rx="5" ry="4"/>
		<ellipse class="st11" cx="511" cy="36.1" rx="5.5" ry="4"/>
		<ellipse class="st11" cx="523.5" cy="36.1" rx="5" ry="4"/>
		<ellipse class="st11" cx="5.5" cy="333.6" rx="5" ry="4.5"/>
		<ellipse class="st11" cx="19" cy="333.6" rx="5.5" ry="4.5"/>
		<ellipse class="st11" cx="32.5" cy="333.6" rx="5" ry="4.5"/>
		<ellipse class="st11" cx="57.5" cy="333.6" rx="5" ry="4.5"/>
		<ellipse class="st11" cx="83" cy="333.6" rx="5.5" ry="4.5"/>
		<ellipse class="st11" cx="200" cy="333.6" rx="5.5" ry="4.5"/>
		<ellipse class="st11" cx="213" cy="333.6" rx="5.5" ry="4.5"/>
		<ellipse class="st11" cx="238" cy="333.6" rx="5.5" ry="4.5"/>
		<ellipse class="st11" cx="252" cy="333.6" rx="5.5" ry="4.5"/>
		<ellipse class="st11" cx="265" cy="333.6" rx="5.5" ry="4.5"/>
		<ellipse class="st11" cx="328.5" cy="333.6" rx="5" ry="4.5"/>
		<ellipse class="st11" cx="342" cy="333.6" rx="5.5" ry="4.5"/>
		<ellipse class="st11" cx="355.5" cy="333.6" rx="5" ry="4.5"/>
		<ellipse class="st11" cx="368.5" cy="333.6" rx="5" ry="4.5"/>
		<ellipse class="st11" cx="420.5" cy="333.6" rx="5" ry="4.5"/>
		<ellipse class="st11" cx="433.5" cy="333.6" rx="5" ry="4.5"/>
		<ellipse class="st11" cx="446.5" cy="333.6" rx="5" ry="4.5"/>
		<ellipse class="st11" cx="497.5" cy="333.6" rx="5" ry="4.5"/>
		<ellipse class="st11" cx="511" cy="333.6" rx="5.5" ry="4.5"/>
		<ellipse class="st11" cx="523.5" cy="333.6" rx="5" ry="4.5"/>
	</g>
	<g id="breaks">
		<line class="st12" x1="64.8" y1="216.6" x2="64" y2="253.5"/>
		<line class="st12" x1="243.8" y1="216.6" x2="243" y2="253.5"/>
		<line class="st12" x1="348.8" y1="216.6" x2="348" y2="253.5"/>
		<line class="st12" x1="440.8" y1="216.6" x2="440" y2="253.5"/>
		<line class="st12" x1="108.8" y1="112.6" x2="108" y2="149.5"/>
		<line class="st12" x1="213.8" y1="112.6" x2="213" y2="149.5"/>
		<line class="st12" x1="315.8" y1="113.6" x2="315" y2="150.5"/>
		<line class="st12" x1="419.8" y1="112.6" x2="419" y2="149.5"/>
		<line class="st12" x1="92.1" y1="18.3" x2="91.3" y2="55.2"/>
		<line class="st12" x1="276.1" y1="18.1" x2="275.3" y2="55"/>
		<line class="st12" x1="379.1" y1="18.6" x2="378.3" y2="55.6"/>
		<line class="st12" x1="456" y1="19.2" x2="455.2" y2="56.1"/>
		<line class="st12" x1="90.8" y1="316.6" x2="90" y2="353.5"/>
		<line class="st12" x1="453.8" y1="316.6" x2="453" y2="353.5"/>
		<line class="st13" x1="278" y1="313.6" x2="278.2" y2="366"/>
	</g>
</g>
</svg>
