<?xml version="1.0" encoding="utf-8"?>
<!-- Generator: Adobe Illustrator 22.1.0, SVG Export Plug-In . SVG Version: 6.00 Build 0)  -->
<svg version="1.1" id="Layer_1" xmlns="http://www.w3.org/2000/svg" xmlns:xlink="http://www.w3.org/1999/xlink" x="0px" y="0px"
	 viewBox="0 0 227.2 406.2" style="enable-background:new 0 0 227.2 406.2;" xml:space="preserve">
<style type="text/css">
	.st0{fill:none;}
	.st1{opacity:0.5;fill:#FFFFFF;stroke:#231F20;stroke-linejoin:round;enable-background:new    ;}
	.st2{opacity:0.5;fill:#CDCAE2;enable-background:new    ;}
	.st3{fill:none;stroke:#010101;stroke-linejoin:round;}
	.st4{opacity:0.5;fill:#9D99C7;enable-background:new    ;}
	.st5{opacity:0.5;fill:#756BB0;enable-background:new    ;}
	.st6{fill:#010101;}
	.st7{font-family:'Corbel';}
	.st8{font-size:10.38px;}
	.st9{opacity:0.5;fill:#FFFFFF;stroke:#010101;stroke-linejoin:round;enable-background:new    ;}
	.st10{opacity:0.5;fill:#552E8D;enable-background:new    ;}
	.st11{fill:none;stroke:#231F20;stroke-linejoin:round;enable-background:new    ;}
	.st12{fill:none;stroke:#010101;stroke-linejoin:round;enable-background:new    ;}
</style>
<title>Asset 3</title>
<g id="Layer_2_1_">
	<g id="Layer_1-2">
		
			<image style="overflow:visible;enable-background:new    ;" width="481" height="244" xlink:href="7B24A3CE3C29F2D9.png"  transform="matrix(0.47 0 0 0.43 0 280.795)">
		</image>
		
			<image style="overflow:visible;enable-background:new    ;" width="467" height="242" xlink:href="7B24A3CE3C29F2DB.png"  transform="matrix(0.47 0 0 0.43 0 144.595)">
		</image>
		
			<image style="overflow:visible;enable-background:new    ;" width="479" height="245" xlink:href="7B24A3CE3C29F2D9.png"  transform="matrix(0.468 0 0 0.4282 0.86 4.9499)">
		</image>
	</g>
	<g id="colored_boxes">
		<rect x="20.3" y="20" class="st0" width="10.4" height="81.9"/>
		<rect x="20.3" y="20" class="st1" width="10.4" height="76.4"/>
		<rect x="30.7" y="20" class="st2" width="13.8" height="75.5"/>
		<rect x="30.7" y="20" class="st3" width="13.8" height="76.4"/>
		<rect x="44.5" y="20" class="st4" width="23.3" height="75.5"/>
		<rect x="44.5" y="20" class="st3" width="23.3" height="76.4"/>
		<rect x="67.9" y="20" class="st5" width="65.7" height="75.5"/>
		<rect x="67.9" y="20" class="st3" width="65.7" height="76.4"/>
		<text transform="matrix(1 0 0 1 83.81 125.21)" class="st6 st7 st8">Natural Breaks</text>
		<rect x="22" y="297" class="st0" width="5.2" height="79.8"/>
		<rect x="22" y="297" class="st9" width="5.2" height="75.4"/>
		<rect x="27.2" y="297" class="st2" width="3.5" height="75.4"/>
		<rect x="27.2" y="297" class="st3" width="3.5" height="75.5"/>
		<rect x="30.7" y="297" class="st4" width="4.3" height="75.4"/>
		<rect x="30.7" y="297" class="st3" width="4.3" height="75.5"/>
		<rect x="35" y="297" class="st5" width="12.1" height="75.4"/>
		<rect x="35" y="297" class="st3" width="12.1" height="75.5"/>
		<text transform="matrix(1 0 0 1 97.25 403.74)" class="st6 st7 st8">Quantile</text>
		<rect x="22.9" y="161" class="st0" width="36.3" height="82.3"/>
		<rect x="22.9" y="161" class="st9" width="36.3" height="75.7"/>
		<rect x="59.2" y="161" class="st2" width="36.3" height="75.7"/>
		<rect x="59.2" y="161" class="st3" width="36.3" height="75.9"/>
		<rect x="95.6" y="161" class="st4" width="37.2" height="75.7"/>
		<rect x="95.6" y="161" class="st3" width="37.2" height="75.9"/>
		<text transform="matrix(1 0 0 1 86.29 262.55)" class="st6 st7 st8">Equal Interval</text>
		<rect x="169.9" y="161" class="st10" width="36.3" height="75.7"/>
		<rect x="169.9" y="161" class="st3" width="36.3" height="75.9"/>
		<rect x="132.7" y="161" class="st5" width="37.2" height="75.7"/>
		<rect x="132.7" y="161" class="st3" width="37.2" height="75.9"/>
		<rect x="47.1" y="297" class="st10" width="159.1" height="75.4"/>
		<rect x="47.1" y="297" class="st3" width="159.1" height="75.5"/>
		<rect x="133.6" y="20" class="st10" width="70.9" height="75.5"/>
		<rect x="133.6" y="20" class="st3" width="70.9" height="76.4"/>
		<rect x="20.4" y="20" class="st11" width="10.4" height="76.4"/>
		<rect x="23" y="161" class="st12" width="36.2" height="75.8"/>
		<rect x="21.9" y="297" class="st12" width="5" height="75.6"/>
	</g>
</g>
</svg>
