<?xml version="1.0" encoding="utf-8"?>
<!-- Generator: Adobe Illustrator 25.0.0, SVG Export Plug-In . SVG Version: 6.00 Build 0)  -->
<svg version="1.1" id="Layer_1" xmlns="http://www.w3.org/2000/svg" xmlns:xlink="http://www.w3.org/1999/xlink" x="0px" y="0px"
	 viewBox="0 0 531.7 165.6" style="enable-background:new 0 0 531.7 165.6;" xml:space="preserve">
<style type="text/css">
	.st0{font-family:'Corbel';}
	.st1{font-size:14px;}
	.st2{fill:#FFFFFF;}
	.st3{fill:none;stroke:#FFFFFF;stroke-miterlimit:10;}
	.st4{font-family:'ArialMT';}
	.st5{fill:#7F7F7F;}
	.st6{fill:none;stroke:#A3A3A3;stroke-width:0.6;stroke-linejoin:round;}
	.st7{fill:none;stroke:#FFFFFF;stroke-width:0.6;stroke-linejoin:round;}
	.st8{fill:#FFFFFF;stroke:#FFFFFF;stroke-width:0.6;stroke-linejoin:round;}
	.st9{fill:#E7D749;stroke:#231F20;stroke-miterlimit:10;}
	.st10{fill:#FFFFFF;stroke:#FFFFFF;stroke-miterlimit:10;}
	.st11{fill:none;stroke:#4B1214;stroke-width:2;stroke-linejoin:round;stroke-dasharray:6,2;}
	.st12{fill:none;stroke:#FFFFFF;stroke-width:2;stroke-linejoin:round;stroke-dasharray:6,2;}
</style>
<g id="text">
	<text transform="matrix(1 0 0 1 175.835 102.515)" class="st0 st1">Equal Interval (equal range of values)</text>
	<text transform="matrix(1 0 0 1 236.775 9.515)" class="st2 st0 st1">Natural Breaks</text>
	<text transform="matrix(1 0 0 1 236.775 9.515)" class="st3 st0 st1">Natural Breaks</text>
	<text transform="matrix(1 0 0 1 4.035 64.515)" class="st2 st4 st1">0</text>
	<text transform="matrix(1 0 0 1 4.035 64.515)" class="st3 st4 st1">0</text>
	<text transform="matrix(1 0 0 1 133.685 64.515)" class="st2 st4 st1">5</text>
	<text transform="matrix(1 0 0 1 133.685 64.515)" class="st3 st4 st1">5</text>
	<text transform="matrix(1 0 0 1 260.155 64.515)" class="st2 st4 st1">10</text>
	<text transform="matrix(1 0 0 1 260.155 64.515)" class="st3 st4 st1">10</text>
	<text transform="matrix(1 0 0 1 389.8051 64.515)" class="st2 st4 st1">15</text>
	<text transform="matrix(1 0 0 1 389.8051 64.515)" class="st3 st4 st1">15</text>
	<text transform="matrix(1 0 0 1 518.655 64.515)" class="st2 st4 st1">20</text>
	<text transform="matrix(1 0 0 1 518.655 64.515)" class="st3 st4 st1">20</text>
	<text transform="matrix(1 0 0 1 4.035 158.515)" class="st5 st4 st1">0</text>
	<text transform="matrix(1 0 0 1 133.685 158.515)" class="st5 st4 st1">5</text>
	<text transform="matrix(1 0 0 1 260.155 158.515)" class="st5 st4 st1">10</text>
	<text transform="matrix(1 0 0 1 389.8051 158.515)" class="st5 st4 st1">15</text>
	<text transform="matrix(1 0 0 1 518.655 158.515)" class="st5 st4 st1">20</text>
</g>
<g id="boxes_and_ticks">
	<line class="st6" x1="7.1" y1="139" x2="526.3" y2="139.1"/>
	<line class="st6" x1="137.2" y1="133" x2="137.1" y2="145.4"/>
	<line class="st6" x1="163.2" y1="133" x2="163.1" y2="145.4"/>
	<line class="st6" x1="189.2" y1="133" x2="189.1" y2="145.4"/>
	<line class="st6" x1="215.2" y1="133" x2="215.1" y2="145.4"/>
	<line class="st6" x1="241.2" y1="133" x2="241.1" y2="145.4"/>
	<line class="st6" x1="267.2" y1="133" x2="267.1" y2="145.4"/>
	<line class="st6" x1="293.2" y1="133" x2="293.1" y2="145.4"/>
	<line class="st6" x1="319.2" y1="133" x2="319.1" y2="145.4"/>
	<line class="st6" x1="345.2" y1="133" x2="345.1" y2="145.4"/>
	<line class="st6" x1="370.2" y1="133" x2="370.1" y2="145.4"/>
	<line class="st6" x1="396.2" y1="133" x2="396.1" y2="145.4"/>
	<line class="st6" x1="422.2" y1="133" x2="422.1" y2="145.4"/>
	<line class="st6" x1="448.2" y1="133" x2="448.1" y2="145.4"/>
	<line class="st6" x1="474.2" y1="133" x2="474.1" y2="145.4"/>
	<line class="st6" x1="500.2" y1="133" x2="500.1" y2="145.4"/>
	<line class="st6" x1="526.2" y1="133" x2="526.1" y2="145.4"/>
	<line class="st6" x1="111.2" y1="133" x2="111.1" y2="145.4"/>
	<line class="st6" x1="85.2" y1="133" x2="85.1" y2="145.4"/>
	<line class="st6" x1="59.2" y1="133" x2="59.1" y2="145.4"/>
	<line class="st6" x1="33.2" y1="133" x2="33.1" y2="145.4"/>
	<line class="st6" x1="8.2" y1="133" x2="8.1" y2="145.4"/>
	<ellipse class="st6" cx="8.1" cy="127" rx="5" ry="4"/>
	<ellipse class="st6" cx="21.6" cy="127" rx="5.5" ry="4"/>
	<ellipse class="st6" cx="35.1" cy="127" rx="5" ry="4"/>
	<ellipse class="st6" cx="60.1" cy="127" rx="5" ry="4"/>
	<ellipse class="st6" cx="85.6" cy="127" rx="5.5" ry="4"/>
	<ellipse class="st6" cx="202.6" cy="127" rx="5.5" ry="4"/>
	<ellipse class="st6" cx="215.6" cy="127" rx="5.5" ry="4"/>
	<ellipse class="st6" cx="240.6" cy="127" rx="5.5" ry="4"/>
	<ellipse class="st6" cx="254.6" cy="127" rx="5.5" ry="4"/>
	<ellipse class="st6" cx="267.6" cy="127" rx="5.5" ry="4"/>
	<ellipse class="st6" cx="331.1" cy="127" rx="5" ry="4"/>
	<ellipse class="st6" cx="344.6" cy="127" rx="5.5" ry="4"/>
	<ellipse class="st6" cx="358.1" cy="127" rx="5" ry="4"/>
	<ellipse class="st6" cx="371.1" cy="127" rx="5" ry="4"/>
	<ellipse class="st6" cx="423.1" cy="127" rx="5" ry="4"/>
	<ellipse class="st6" cx="436.1" cy="127" rx="5" ry="4"/>
	<ellipse class="st6" cx="449.1" cy="127" rx="5" ry="4"/>
	<ellipse class="st6" cx="500.1" cy="127" rx="5" ry="4"/>
	<ellipse class="st6" cx="513.6" cy="127" rx="5.5" ry="4"/>
	<ellipse class="st6" cx="526.1" cy="127" rx="5" ry="4"/>
	<line class="st7" x1="7.1" y1="46" x2="526.3" y2="46.1"/>
	<ellipse class="st8" cx="8.1" cy="34" rx="5" ry="4"/>
	<ellipse class="st8" cx="21.6" cy="34" rx="5.5" ry="4"/>
	<ellipse class="st8" cx="35.1" cy="34" rx="5" ry="4"/>
	<ellipse class="st8" cx="60.1" cy="34" rx="5" ry="4"/>
	<ellipse class="st8" cx="85.6" cy="34" rx="5.5" ry="4"/>
	<ellipse class="st8" cx="202.6" cy="34" rx="5.5" ry="4"/>
	<ellipse class="st8" cx="215.6" cy="34" rx="5.5" ry="4"/>
	<ellipse class="st8" cx="240.6" cy="34" rx="5.5" ry="4"/>
	<ellipse class="st8" cx="254.6" cy="34" rx="5.5" ry="4"/>
	<ellipse class="st8" cx="267.6" cy="34" rx="5.5" ry="4"/>
	<ellipse class="st8" cx="331.1" cy="34" rx="5" ry="4"/>
	<ellipse class="st8" cx="344.6" cy="34" rx="5.5" ry="4"/>
	<ellipse class="st8" cx="358.1" cy="34" rx="5" ry="4"/>
	<ellipse class="st8" cx="371.1" cy="34" rx="5" ry="4"/>
	<ellipse class="st8" cx="423.1" cy="34" rx="5" ry="4"/>
	<ellipse class="st8" cx="436.1" cy="34" rx="5" ry="4"/>
	<ellipse class="st8" cx="449.1" cy="34" rx="5" ry="4"/>
	<ellipse class="st8" cx="500.1" cy="34" rx="5" ry="4"/>
	<ellipse class="st8" cx="513.6" cy="34" rx="5.5" ry="4"/>
	<ellipse class="st8" cx="526.1" cy="34" rx="5" ry="4"/>
	<line class="st7" x1="137.2" y1="40" x2="137.1" y2="52.4"/>
	<line class="st7" x1="163.2" y1="40" x2="163.1" y2="52.4"/>
	<line class="st7" x1="189.2" y1="40" x2="189.1" y2="52.4"/>
	<line class="st7" x1="215.2" y1="40" x2="215.1" y2="52.4"/>
	<line class="st7" x1="241.2" y1="40" x2="241.1" y2="52.4"/>
	<line class="st7" x1="267.2" y1="40" x2="267.1" y2="52.4"/>
	<line class="st7" x1="293.2" y1="40" x2="293.1" y2="52.4"/>
	<line class="st7" x1="319.2" y1="40" x2="319.1" y2="52.4"/>
	<line class="st7" x1="345.2" y1="40" x2="345.1" y2="52.4"/>
	<line class="st7" x1="370.2" y1="40" x2="370.1" y2="52.4"/>
	<line class="st7" x1="396.2" y1="40" x2="396.1" y2="52.4"/>
	<line class="st7" x1="422.2" y1="40" x2="422.1" y2="52.4"/>
	<line class="st7" x1="448.2" y1="40" x2="448.1" y2="52.4"/>
	<line class="st7" x1="474.2" y1="40" x2="474.1" y2="52.4"/>
	<line class="st7" x1="500.2" y1="40" x2="500.1" y2="52.4"/>
	<line class="st7" x1="526.2" y1="40" x2="526.1" y2="52.4"/>
	<line class="st7" x1="111.2" y1="40" x2="111.1" y2="52.4"/>
	<line class="st7" x1="85.2" y1="40" x2="85.1" y2="52.4"/>
	<line class="st7" x1="59.2" y1="40" x2="59.1" y2="52.4"/>
	<line class="st7" x1="33.2" y1="40" x2="33.1" y2="52.4"/>
	<line class="st7" x1="8.2" y1="40" x2="8.1" y2="52.4"/>
</g>
<g id="balls">
	<ellipse class="st9" cx="8.1" cy="127" rx="5" ry="4"/>
	<ellipse class="st9" cx="21.6" cy="127" rx="5.5" ry="4"/>
	<ellipse class="st9" cx="35.1" cy="127" rx="5" ry="4"/>
	<ellipse class="st9" cx="60.1" cy="127" rx="5" ry="4"/>
	<ellipse class="st9" cx="85.6" cy="127" rx="5.5" ry="4"/>
	<ellipse class="st9" cx="202.6" cy="127" rx="5.5" ry="4"/>
	<ellipse class="st9" cx="215.6" cy="127" rx="5.5" ry="4"/>
	<ellipse class="st9" cx="240.6" cy="127" rx="5.5" ry="4"/>
	<ellipse class="st9" cx="254.6" cy="127" rx="5.5" ry="4"/>
	<ellipse class="st9" cx="267.6" cy="127" rx="5.5" ry="4"/>
	<ellipse class="st9" cx="331.1" cy="127" rx="5" ry="4"/>
	<ellipse class="st9" cx="344.6" cy="127" rx="5.5" ry="4"/>
	<ellipse class="st9" cx="358.1" cy="127" rx="5" ry="4"/>
	<ellipse class="st9" cx="371.1" cy="127" rx="5" ry="4"/>
	<ellipse class="st9" cx="423.1" cy="127" rx="5" ry="4"/>
	<ellipse class="st9" cx="436.1" cy="127" rx="5" ry="4"/>
	<ellipse class="st9" cx="449.1" cy="127" rx="5" ry="4"/>
	<ellipse class="st9" cx="500.1" cy="127" rx="5" ry="4"/>
	<ellipse class="st9" cx="513.6" cy="127" rx="5.5" ry="4"/>
	<ellipse class="st9" cx="526.1" cy="127" rx="5" ry="4"/>
	<ellipse class="st10" cx="8.1" cy="34" rx="5" ry="4"/>
	<ellipse class="st10" cx="21.6" cy="34" rx="5.5" ry="4"/>
	<ellipse class="st10" cx="35.1" cy="34" rx="5" ry="4"/>
	<ellipse class="st10" cx="60.1" cy="34" rx="5" ry="4"/>
	<ellipse class="st10" cx="85.6" cy="34" rx="5.5" ry="4"/>
	<ellipse class="st10" cx="202.6" cy="34" rx="5.5" ry="4"/>
	<ellipse class="st10" cx="215.6" cy="34" rx="5.5" ry="4"/>
	<ellipse class="st10" cx="240.6" cy="34" rx="5.5" ry="4"/>
	<ellipse class="st10" cx="254.6" cy="34" rx="5.5" ry="4"/>
	<ellipse class="st10" cx="267.6" cy="34" rx="5.5" ry="4"/>
	<ellipse class="st10" cx="331.1" cy="34" rx="5" ry="4"/>
	<ellipse class="st10" cx="344.6" cy="34" rx="5.5" ry="4"/>
	<ellipse class="st10" cx="358.1" cy="34" rx="5" ry="4"/>
	<ellipse class="st10" cx="371.1" cy="34" rx="5" ry="4"/>
	<ellipse class="st10" cx="423.1" cy="34" rx="5" ry="4"/>
	<ellipse class="st10" cx="436.1" cy="34" rx="5" ry="4"/>
	<ellipse class="st10" cx="449.1" cy="34" rx="5" ry="4"/>
	<ellipse class="st10" cx="500.1" cy="34" rx="5" ry="4"/>
	<ellipse class="st10" cx="513.6" cy="34" rx="5.5" ry="4"/>
	<ellipse class="st10" cx="526.1" cy="34" rx="5" ry="4"/>
</g>
<line class="st11" x1="111.3" y1="110.5" x2="110.6" y2="147.5"/>
<line class="st11" x1="216.3" y1="110.5" x2="215.6" y2="147.5"/>
<line class="st11" x1="318.3" y1="111.5" x2="317.6" y2="148.5"/>
<line class="st11" x1="423.3" y1="110.5" x2="422.6" y2="147.5"/>
<line class="st12" x1="94.6" y1="16.2" x2="93.9" y2="53.2"/>
<line class="st12" x1="278.6" y1="16" x2="277.9" y2="53"/>
<line class="st12" x1="381.6" y1="16.6" x2="380.9" y2="53.5"/>
<line class="st12" x1="458.5" y1="17.1" x2="457.8" y2="54.1"/>
</svg>
