<svg xmlns="http://www.w3.org/2000/svg" viewBox="0 0 624.08 368.78"><defs><style>.cls-1{fill:#789fd4;opacity:0.6;}.cls-2{fill:#67c39b;}.cls-3{fill:none;stroke:#00674e;stroke-linejoin:round;stroke-width:2px;}.cls-4{font-size:23.64px;font-family:Arial-BoldMT, Arial;font-weight:700;letter-spacing:0em;}.cls-4,.cls-5,.cls-6,.cls-7{fill:#eef7f4;}.cls-5,.cls-6,.cls-7{font-size:22.69px;font-family:ArialMT, Arial;}.cls-5{letter-spacing:0em;}.cls-6{letter-spacing:0em;}</style></defs><title>Asset 1</title><g id="Layer_2" data-name="Layer 2"><g id="Layer_1-2" data-name="Layer 1"><ellipse class="cls-1" cx="423.15" cy="238.76" rx="200.94" ry="130.02"/><ellipse class="cls-1" cx="200.94" cy="238.76" rx="200.94" ry="130.02"/><ellipse class="cls-1" cx="309.2" cy="130.02" rx="200.46" ry="130.02"/><rect class="cls-2" x="217.96" y="182.02" width="184.39" height="49.17" rx="8.2" ry="8.2"/><rect class="cls-3" x="217.96" y="182.02" width="184.39" height="49.17" rx="8.2" ry="8.2"/><text class="cls-4" transform="translate(227.83 213.7)">Generalization</text><ellipse class="cls-2" cx="209.45" cy="95.5" rx="86.99" ry="24.11"/><ellipse class="cls-3" cx="209.45" cy="95.5" rx="86.99" ry="24.11"/><text class="cls-5" transform="translate(166.62 102.12)">Purpose</text><ellipse class="cls-2" cx="409.91" cy="95.5" rx="86.99" ry="24.11"/><ellipse class="cls-3" cx="409.91" cy="95.5" rx="86.99" ry="24.11"/><text class="cls-6" transform="translate(378.82 102.12)">Focus</text><ellipse class="cls-2" cx="510.61" cy="203.77" rx="86.52" ry="24.59"/><ellipse class="cls-3" cx="510.61" cy="203.77" rx="86.52" ry="24.59"/><text class="cls-5" transform="translate(477.91 210.86)">Clarity</text><ellipse class="cls-2" cx="109.21" cy="203.77" rx="86.99" ry="24.59"/><ellipse class="cls-3" cx="109.21" cy="203.77" rx="86.99" ry="24.59"/><text class="cls-7" transform="translate(80.11 210.86)">Scale</text><ellipse class="cls-2" cx="203.77" cy="306.84" rx="86.99" ry="24.59"/><ellipse class="cls-3" cx="203.77" cy="306.84" rx="86.99" ry="24.59"/><text class="cls-7" transform="translate(172.54 313.93)">Media</text><ellipse class="cls-2" cx="415.58" cy="306.84" rx="86.99" ry="24.59"/><ellipse class="cls-3" cx="415.58" cy="306.84" rx="86.99" ry="24.59"/><text class="cls-6" transform="translate(381.7 313.93)">Clutter</text></g></g></svg>