<?xml version="1.0" encoding="utf-8"?>
<!-- Generator: Adobe Illustrator 27.5.0, SVG Export Plug-In . SVG Version: 6.00 Build 0)  -->
<svg version="1.1" id="Layer_1" xmlns="http://www.w3.org/2000/svg" xmlns:xlink="http://www.w3.org/1999/xlink" x="0px" y="0px"
	 viewBox="0 0 415.3 225.6" style="enable-background:new 0 0 415.3 225.6;" xml:space="preserve">
<style type="text/css">
	.st0{enable-background:new    ;}
	.st1{fill:#231F20;}
	.st2{font-family:'ArialMT';}
	.st3{font-size:12px;}
	.st4{fill:#738693;}
	.st5{fill:none;stroke:#231F20;stroke-miterlimit:10;}
</style>
<g id="Layer_2_00000173137610572650149800000012949832771465853837_">
	<g id="Layer_1-2">
		<text transform="matrix(1 0 0 1 3.7137 109.9606)" class="st0"><tspan x="0" y="0" class="st1 st2 st3">GIS File or Project</tspan><tspan x="0" y="14.4" class="st4 st2 st3">[ .aprx .mxd .qgs ]</tspan></text>
		<text transform="matrix(1 0 0 1 180.4231 89.0252)" class="st0"><tspan x="0" y="0" class="st1 st2 st3">Street Data Layer</tspan><tspan x="0" y="14.4" class="st4 st2 st3">[ .gdb ]</tspan></text>
		<text transform="matrix(1 0 0 1 180.4229 128.2497)" class="st0"><tspan x="0" y="0" class="st1 st2 st3">Government Administrative Boundary Layer</tspan><tspan x="0" y="14.4" class="st4 st2 st3">[ .gdb ]</tspan></text>
		<text transform="matrix(1 0 0 1 180.4229 49.8003)" class="st0"><tspan x="0" y="0" class="st1 st2 st3">Property Data Layer</tspan><tspan x="0" y="14.4" class="st4 st2 st3">[ .geojson ]</tspan></text>
		<text transform="matrix(1 0 0 1 180.4229 10.5755)" class="st0"><tspan x="0" y="0" class="st1 st2 st3">Building Footprint Data Layer</tspan><tspan x="0" y="14.4" class="st4 st2 st3">[ SQLserver ]</tspan></text>
		<text transform="matrix(1 0 0 1 180.4228 167.4749)" class="st0"><tspan x="0" y="0" class="st1 st2 st3">River Data Layer</tspan><tspan x="0" y="14.4" class="st4 st2 st3">[ .shp .shx. .prj .dbf .sbn ]</tspan></text>
		<text transform="matrix(1 0 0 1 180.4231 206.6994)" class="st0"><tspan x="0" y="0" class="st1 st2 st3">Satellite Image</tspan><tspan x="0" y="14.4" class="st4 st2 st3">[ .geotiff ]</tspan></text>
		<line class="st5" x1="116.7" y1="110.3" x2="162.9" y2="98.6"/>
		<path class="st1" d="M161.2,99.1l-3-3l0.1-0.1l6.3,0.8l6.3-0.2l-5.6,2.8l-5.1,3.7H160L161.2,99.1z"/>
		<line class="st5" x1="117" y1="105.2" x2="164.8" y2="66.2"/>
		<path class="st1" d="M163.4,67.4l-4-1.4v-0.2l6-1.9l5.6-2.8l-3.8,4.9l-3.1,5.5H164L163.4,67.4z"/>
		<line class="st5" x1="117.3" y1="99.2" x2="166.7" y2="29.5"/>
		<path class="st1" d="M165.7,30.9l-4.2-0.3v-0.1l5.3-3.4l4.7-4.2l-2.4,5.8l-1.5,6.1l-0.1,0.1L165.7,30.9z"/>
		<line class="st5" x1="116.7" y1="116.2" x2="162.9" y2="127.9"/>
		<path class="st1" d="M161.2,127.4l-1.2-4l0.1-0.1l5.1,3.7l5.6,2.8l-6.3-0.2l-6.3,0.8l-0.1-0.1L161.2,127.4z"/>
		<line class="st5" x1="117" y1="121.3" x2="164.8" y2="160.3"/>
		<path class="st1" d="M163.4,159.1l0.6-4.1h0.1l3.1,5.5l3.9,4.9l-5.6-2.8l-6-1.9l-0.1-0.1L163.4,159.1z"/>
		<line class="st5" x1="117.3" y1="127.3" x2="166.7" y2="197.1"/>
		<path class="st1" d="M165.7,195.6l1.7-3.9l0.1,0.1l1.5,6.1l2.4,5.8l-4.7-4.2l-5.3-3.4v-0.1L165.7,195.6z"/>
	</g>
</g>
</svg>
