<svg xmlns="http://www.w3.org/2000/svg" viewBox="0 0 415.31 225.59"><defs><style>.cls-1{font-size:12px;font-family:ArialMT, Arial;}.cls-1,.cls-4{fill:#231f20;}.cls-2{letter-spacing:-0.06em;}.cls-3{fill:none;stroke:#231f20;stroke-miterlimit:10;}</style></defs><title>Asset 1</title><g id="Layer_2" data-name="Layer 2"><g id="Layer_1-2" data-name="Layer 1"><text class="cls-1" transform="translate(0 116.22)">GIS File or Project</text><text class="cls-1" transform="translate(183.03 94.86)">Street Data Layer</text><text class="cls-1" transform="translate(183.03 137.13)">Government<tspan class="cls-2" x="66.03" y="0"> </tspan><tspan x="68.7" y="0">Administrative Boundary Layer</tspan></text><text class="cls-1" transform="translate(183.03 52.58)">Property Data Layer</text><text class="cls-1" transform="translate(183.03 10.3)">Building Footprint Data Layer</text><text class="cls-1" transform="translate(183.03 179.41)">River Data Layer</text><text class="cls-1" transform="translate(183.03 221.69)">Coastline Data Layer</text><line class="cls-3" x1="116.68" y1="110.31" x2="162.93" y2="98.64"/><path class="cls-4" d="M161.19,99.08l-3-3,.1-.11,6.27.82,6.28-.19-5.62,2.81-5.13,3.7-.13,0Z"/><line class="cls-3" x1="116.98" y1="105.16" x2="164.8" y2="66.23"/><path class="cls-4" d="M163.41,67.37l-4-1.41,0-.15,6-1.89,5.61-2.83L167.21,66l-3.08,5.52-.13,0Z"/><line class="cls-3" x1="117.27" y1="99.22" x2="166.7" y2="29.45"/><path class="cls-4" d="M165.67,30.92l-4.21-.3v-.15l5.3-3.44,4.66-4.23L169,28.59l-1.49,6.14-.12.07Z"/><line class="cls-3" x1="116.68" y1="116.19" x2="162.93" y2="127.86"/><path class="cls-4" d="M161.19,127.43l-1.25-4,.14-.05,5.13,3.7,5.62,2.81-6.28-.19-6.27.82-.11-.09Z"/><line class="cls-3" x1="116.98" y1="121.34" x2="164.8" y2="160.27"/><path class="cls-4" d="M163.41,159.13,164,155h.15l3.08,5.52,3.91,4.92-5.61-2.83-6-1.89-.06-.13Z"/><line class="cls-3" x1="117.27" y1="127.28" x2="166.7" y2="197.05"/><path class="cls-4" d="M165.67,195.58l1.67-3.87.14.06,1.49,6.14,2.45,5.79-4.66-4.23-5.3-3.44,0-.14Z"/></g></g></svg>