<?xml version="1.0" encoding="utf-8"?>
<!-- Generator: Adobe Illustrator 25.0.0, SVG Export Plug-In . SVG Version: 6.00 Build 0)  -->
<svg version="1.1" id="Layer_1" xmlns="http://www.w3.org/2000/svg" xmlns:xlink="http://www.w3.org/1999/xlink" x="0px" y="0px"
	 viewBox="0 0 531.1 269.1" style="enable-background:new 0 0 531.1 269.1;" xml:space="preserve">
<style type="text/css">
	.st0{font-family:'Corbel';}
	.st1{font-size:14px;}
	.st2{fill:#7F7F7F;}
	.st3{font-family:'ArialMT';}
	.st4{fill:none;stroke:#A3A3A3;stroke-width:0.6;stroke-linejoin:round;}
	.st5{fill:#E7D749;stroke:#231F20;stroke-miterlimit:10;}
	.st6{fill:none;stroke:#4B1214;stroke-width:2;stroke-linejoin:round;stroke-dasharray:6,2;}
</style>
<g id="Layer_2_1_">
	<g id="text">
		<text transform="matrix(1 0 0 1 170.09 208.57)" class="st0 st1">Quantile (equal number of features)</text>
		<text transform="matrix(1 0 0 1 173.28 104.57)" class="st0 st1">Equal Interval (equal range of values)</text>
		<text transform="matrix(1 0 0 1 234.22 11.57)" class="st0 st1">Natural Breaks</text>
		<text transform="matrix(1 0 0 1 1.48 66.57)" class="st2 st3 st1">0</text>
		<text transform="matrix(1 0 0 1 131.13 66.57)" class="st2 st3 st1">5</text>
		<text transform="matrix(1 0 0 1 257.6 66.57)" class="st2 st3 st1">10</text>
		<text transform="matrix(1 0 0 1 387.25 66.57)" class="st2 st3 st1">15</text>
		<text transform="matrix(1 0 0 1 516.1 66.57)" class="st2 st3 st1">20</text>
		<text transform="matrix(1 0 0 1 1.48 160.57)" class="st2 st3 st1">0</text>
		<text transform="matrix(1 0 0 1 131.13 160.57)" class="st2 st3 st1">5</text>
		<text transform="matrix(1 0 0 1 257.6 160.57)" class="st2 st3 st1">10</text>
		<text transform="matrix(1 0 0 1 387.25 160.57)" class="st2 st3 st1">15</text>
		<text transform="matrix(1 0 0 1 516.1 160.57)" class="st2 st3 st1">20</text>
		<text transform="matrix(1 0 0 1 1.48 264.57)" class="st2 st3 st1">0</text>
		<text transform="matrix(1 0 0 1 131.13 264.57)" class="st2 st3 st1">5</text>
		<text transform="matrix(1 0 0 1 257.6 264.57)" class="st2 st3 st1">10</text>
		<text transform="matrix(1 0 0 1 387.25 264.57)" class="st2 st3 st1">15</text>
		<text transform="matrix(1 0 0 1 516.1 264.57)" class="st2 st3 st1">20</text>
	</g>
	<g id="boxes_and_ticks">
		<line class="st4" x1="4.5" y1="246.1" x2="523.7" y2="246.2"/>
		<line class="st4" x1="134.6" y1="240.1" x2="134.5" y2="252.4"/>
		<line class="st4" x1="160.6" y1="240.1" x2="160.5" y2="252.4"/>
		<line class="st4" x1="186.6" y1="240.1" x2="186.5" y2="252.4"/>
		<line class="st4" x1="212.6" y1="240.1" x2="212.5" y2="252.4"/>
		<line class="st4" x1="238.6" y1="240.1" x2="238.5" y2="252.4"/>
		<line class="st4" x1="264.6" y1="240.1" x2="264.5" y2="252.4"/>
		<line class="st4" x1="290.6" y1="240.1" x2="290.5" y2="252.4"/>
		<line class="st4" x1="316.6" y1="240.1" x2="316.5" y2="252.4"/>
		<line class="st4" x1="342.6" y1="240.1" x2="342.5" y2="252.4"/>
		<line class="st4" x1="367.6" y1="240.1" x2="367.5" y2="252.4"/>
		<line class="st4" x1="393.6" y1="240.1" x2="393.5" y2="252.4"/>
		<line class="st4" x1="419.6" y1="240.1" x2="419.5" y2="252.4"/>
		<line class="st4" x1="445.6" y1="240.1" x2="445.5" y2="252.4"/>
		<line class="st4" x1="471.6" y1="240.1" x2="471.5" y2="252.4"/>
		<line class="st4" x1="497.6" y1="240.1" x2="497.5" y2="252.4"/>
		<line class="st4" x1="523.6" y1="240.1" x2="523.5" y2="252.4"/>
		<line class="st4" x1="108.6" y1="240.1" x2="108.5" y2="252.4"/>
		<line class="st4" x1="82.6" y1="240.1" x2="82.5" y2="252.4"/>
		<line class="st4" x1="56.6" y1="240.1" x2="56.5" y2="252.4"/>
		<line class="st4" x1="30.6" y1="240.1" x2="30.5" y2="252.4"/>
		<line class="st4" x1="5.6" y1="240.1" x2="5.5" y2="252.4"/>
		<ellipse class="st4" cx="5.5" cy="233.6" rx="5" ry="4.5"/>
		<ellipse class="st4" cx="19" cy="233.6" rx="5.5" ry="4.5"/>
		<ellipse class="st4" cx="32.5" cy="233.6" rx="5" ry="4.5"/>
		<ellipse class="st4" cx="57.5" cy="233.6" rx="5" ry="4.5"/>
		<ellipse class="st4" cx="83" cy="233.6" rx="5.5" ry="4.5"/>
		<ellipse class="st4" cx="200" cy="233.6" rx="5.5" ry="4.5"/>
		<ellipse class="st4" cx="213" cy="233.6" rx="5.5" ry="4.5"/>
		<ellipse class="st4" cx="238" cy="233.6" rx="5.5" ry="4.5"/>
		<ellipse class="st4" cx="252" cy="233.6" rx="5.5" ry="4.5"/>
		<ellipse class="st4" cx="265" cy="233.6" rx="5.5" ry="4.5"/>
		<ellipse class="st4" cx="328.5" cy="233.6" rx="5" ry="4.5"/>
		<ellipse class="st4" cx="342" cy="233.6" rx="5.5" ry="4.5"/>
		<ellipse class="st4" cx="355.5" cy="233.6" rx="5" ry="4.5"/>
		<ellipse class="st4" cx="368.5" cy="233.6" rx="5" ry="4.5"/>
		<ellipse class="st4" cx="420.5" cy="233.6" rx="5" ry="4.5"/>
		<ellipse class="st4" cx="433.5" cy="233.6" rx="5" ry="4.5"/>
		<ellipse class="st4" cx="446.5" cy="233.6" rx="5" ry="4.5"/>
		<ellipse class="st4" cx="497.5" cy="233.6" rx="5" ry="4.5"/>
		<ellipse class="st4" cx="511" cy="233.6" rx="5.5" ry="4.5"/>
		<ellipse class="st4" cx="523.5" cy="233.6" rx="5" ry="4.5"/>
		<line class="st4" x1="4.5" y1="141.1" x2="523.7" y2="141.2"/>
		<line class="st4" x1="134.6" y1="135.1" x2="134.5" y2="147.4"/>
		<line class="st4" x1="160.6" y1="135.1" x2="160.5" y2="147.4"/>
		<line class="st4" x1="186.6" y1="135.1" x2="186.5" y2="147.4"/>
		<line class="st4" x1="212.6" y1="135.1" x2="212.5" y2="147.4"/>
		<line class="st4" x1="238.6" y1="135.1" x2="238.5" y2="147.4"/>
		<line class="st4" x1="264.6" y1="135.1" x2="264.5" y2="147.4"/>
		<line class="st4" x1="290.6" y1="135.1" x2="290.5" y2="147.4"/>
		<line class="st4" x1="316.6" y1="135.1" x2="316.5" y2="147.4"/>
		<line class="st4" x1="342.6" y1="135.1" x2="342.5" y2="147.4"/>
		<line class="st4" x1="367.6" y1="135.1" x2="367.5" y2="147.4"/>
		<line class="st4" x1="393.6" y1="135.1" x2="393.5" y2="147.4"/>
		<line class="st4" x1="419.6" y1="135.1" x2="419.5" y2="147.4"/>
		<line class="st4" x1="445.6" y1="135.1" x2="445.5" y2="147.4"/>
		<line class="st4" x1="471.6" y1="135.1" x2="471.5" y2="147.4"/>
		<line class="st4" x1="497.6" y1="135.1" x2="497.5" y2="147.4"/>
		<line class="st4" x1="523.6" y1="135.1" x2="523.5" y2="147.4"/>
		<line class="st4" x1="108.6" y1="135.1" x2="108.5" y2="147.4"/>
		<line class="st4" x1="82.6" y1="135.1" x2="82.5" y2="147.4"/>
		<line class="st4" x1="56.6" y1="135.1" x2="56.5" y2="147.4"/>
		<line class="st4" x1="30.6" y1="135.1" x2="30.5" y2="147.4"/>
		<line class="st4" x1="5.6" y1="135.1" x2="5.5" y2="147.4"/>
		<ellipse class="st4" cx="5.5" cy="129.1" rx="5" ry="4"/>
		<ellipse class="st4" cx="19" cy="129.1" rx="5.5" ry="4"/>
		<ellipse class="st4" cx="32.5" cy="129.1" rx="5" ry="4"/>
		<ellipse class="st4" cx="57.5" cy="129.1" rx="5" ry="4"/>
		<ellipse class="st4" cx="83" cy="129.1" rx="5.5" ry="4"/>
		<ellipse class="st4" cx="200" cy="129.1" rx="5.5" ry="4"/>
		<ellipse class="st4" cx="213" cy="129.1" rx="5.5" ry="4"/>
		<ellipse class="st4" cx="238" cy="129.1" rx="5.5" ry="4"/>
		<ellipse class="st4" cx="252" cy="129.1" rx="5.5" ry="4"/>
		<ellipse class="st4" cx="265" cy="129.1" rx="5.5" ry="4"/>
		<ellipse class="st4" cx="328.5" cy="129.1" rx="5" ry="4"/>
		<ellipse class="st4" cx="342" cy="129.1" rx="5.5" ry="4"/>
		<ellipse class="st4" cx="355.5" cy="129.1" rx="5" ry="4"/>
		<ellipse class="st4" cx="368.5" cy="129.1" rx="5" ry="4"/>
		<ellipse class="st4" cx="420.5" cy="129.1" rx="5" ry="4"/>
		<ellipse class="st4" cx="433.5" cy="129.1" rx="5" ry="4"/>
		<ellipse class="st4" cx="446.5" cy="129.1" rx="5" ry="4"/>
		<ellipse class="st4" cx="497.5" cy="129.1" rx="5" ry="4"/>
		<ellipse class="st4" cx="511" cy="129.1" rx="5.5" ry="4"/>
		<ellipse class="st4" cx="523.5" cy="129.1" rx="5" ry="4"/>
		<line class="st4" x1="4.5" y1="48.1" x2="523.7" y2="48.2"/>
		<ellipse class="st4" cx="5.5" cy="36.1" rx="5" ry="4"/>
		<ellipse class="st4" cx="19" cy="36.1" rx="5.5" ry="4"/>
		<ellipse class="st4" cx="32.5" cy="36.1" rx="5" ry="4"/>
		<ellipse class="st4" cx="57.5" cy="36.1" rx="5" ry="4"/>
		<ellipse class="st4" cx="83" cy="36.1" rx="5.5" ry="4"/>
		<ellipse class="st4" cx="200" cy="36.1" rx="5.5" ry="4"/>
		<ellipse class="st4" cx="213" cy="36.1" rx="5.5" ry="4"/>
		<ellipse class="st4" cx="238" cy="36.1" rx="5.5" ry="4"/>
		<ellipse class="st4" cx="252" cy="36.1" rx="5.5" ry="4"/>
		<ellipse class="st4" cx="265" cy="36.1" rx="5.5" ry="4"/>
		<ellipse class="st4" cx="328.5" cy="36.1" rx="5" ry="4"/>
		<ellipse class="st4" cx="342" cy="36.1" rx="5.5" ry="4"/>
		<ellipse class="st4" cx="355.5" cy="36.1" rx="5" ry="4"/>
		<ellipse class="st4" cx="368.5" cy="36.1" rx="5" ry="4"/>
		<ellipse class="st4" cx="420.5" cy="36.1" rx="5" ry="4"/>
		<ellipse class="st4" cx="433.5" cy="36.1" rx="5" ry="4"/>
		<ellipse class="st4" cx="446.5" cy="36.1" rx="5" ry="4"/>
		<ellipse class="st4" cx="497.5" cy="36.1" rx="5" ry="4"/>
		<ellipse class="st4" cx="511" cy="36.1" rx="5.5" ry="4"/>
		<ellipse class="st4" cx="523.5" cy="36.1" rx="5" ry="4"/>
		<line class="st4" x1="134.6" y1="42.1" x2="134.5" y2="54.4"/>
		<line class="st4" x1="160.6" y1="42.1" x2="160.5" y2="54.4"/>
		<line class="st4" x1="186.6" y1="42.1" x2="186.5" y2="54.4"/>
		<line class="st4" x1="212.6" y1="42.1" x2="212.5" y2="54.4"/>
		<line class="st4" x1="238.6" y1="42.1" x2="238.5" y2="54.4"/>
		<line class="st4" x1="264.6" y1="42.1" x2="264.5" y2="54.4"/>
		<line class="st4" x1="290.6" y1="42.1" x2="290.5" y2="54.4"/>
		<line class="st4" x1="316.6" y1="42.1" x2="316.5" y2="54.4"/>
		<line class="st4" x1="342.6" y1="42.1" x2="342.5" y2="54.4"/>
		<line class="st4" x1="367.6" y1="42.1" x2="367.5" y2="54.4"/>
		<line class="st4" x1="393.6" y1="42.1" x2="393.5" y2="54.4"/>
		<line class="st4" x1="419.6" y1="42.1" x2="419.5" y2="54.4"/>
		<line class="st4" x1="445.6" y1="42.1" x2="445.5" y2="54.4"/>
		<line class="st4" x1="471.6" y1="42.1" x2="471.5" y2="54.4"/>
		<line class="st4" x1="497.6" y1="42.1" x2="497.5" y2="54.4"/>
		<line class="st4" x1="523.6" y1="42.1" x2="523.5" y2="54.4"/>
		<line class="st4" x1="108.6" y1="42.1" x2="108.5" y2="54.4"/>
		<line class="st4" x1="82.6" y1="42.1" x2="82.5" y2="54.4"/>
		<line class="st4" x1="56.6" y1="42.1" x2="56.5" y2="54.4"/>
		<line class="st4" x1="30.6" y1="42.1" x2="30.5" y2="54.4"/>
		<line class="st4" x1="5.6" y1="42.1" x2="5.5" y2="54.4"/>
	</g>
	<g id="balls">
		<ellipse class="st5" cx="5.5" cy="233.6" rx="5" ry="4.5"/>
		<ellipse class="st5" cx="19" cy="233.6" rx="5.5" ry="4.5"/>
		<ellipse class="st5" cx="32.5" cy="233.6" rx="5" ry="4.5"/>
		<ellipse class="st5" cx="57.5" cy="233.6" rx="5" ry="4.5"/>
		<ellipse class="st5" cx="83" cy="233.6" rx="5.5" ry="4.5"/>
		<ellipse class="st5" cx="200" cy="233.6" rx="5.5" ry="4.5"/>
		<ellipse class="st5" cx="213" cy="233.6" rx="5.5" ry="4.5"/>
		<ellipse class="st5" cx="238" cy="233.6" rx="5.5" ry="4.5"/>
		<ellipse class="st5" cx="252" cy="233.6" rx="5.5" ry="4.5"/>
		<ellipse class="st5" cx="265" cy="233.6" rx="5.5" ry="4.5"/>
		<ellipse class="st5" cx="328.5" cy="233.6" rx="5" ry="4.5"/>
		<ellipse class="st5" cx="342" cy="233.6" rx="5.5" ry="4.5"/>
		<ellipse class="st5" cx="355.5" cy="233.6" rx="5" ry="4.5"/>
		<ellipse class="st5" cx="368.5" cy="233.6" rx="5" ry="4.5"/>
		<ellipse class="st5" cx="420.5" cy="233.6" rx="5" ry="4.5"/>
		<ellipse class="st5" cx="433.5" cy="233.6" rx="5" ry="4.5"/>
		<ellipse class="st5" cx="446.5" cy="233.6" rx="5" ry="4.5"/>
		<ellipse class="st5" cx="497.5" cy="233.6" rx="5" ry="4.5"/>
		<ellipse class="st5" cx="511" cy="233.6" rx="5.5" ry="4.5"/>
		<ellipse class="st5" cx="523.5" cy="233.6" rx="5" ry="4.5"/>
		<ellipse class="st5" cx="5.5" cy="129.1" rx="5" ry="4"/>
		<ellipse class="st5" cx="19" cy="129.1" rx="5.5" ry="4"/>
		<ellipse class="st5" cx="32.5" cy="129.1" rx="5" ry="4"/>
		<ellipse class="st5" cx="57.5" cy="129.1" rx="5" ry="4"/>
		<ellipse class="st5" cx="83" cy="129.1" rx="5.5" ry="4"/>
		<ellipse class="st5" cx="200" cy="129.1" rx="5.5" ry="4"/>
		<ellipse class="st5" cx="213" cy="129.1" rx="5.5" ry="4"/>
		<ellipse class="st5" cx="238" cy="129.1" rx="5.5" ry="4"/>
		<ellipse class="st5" cx="252" cy="129.1" rx="5.5" ry="4"/>
		<ellipse class="st5" cx="265" cy="129.1" rx="5.5" ry="4"/>
		<ellipse class="st5" cx="328.5" cy="129.1" rx="5" ry="4"/>
		<ellipse class="st5" cx="342" cy="129.1" rx="5.5" ry="4"/>
		<ellipse class="st5" cx="355.5" cy="129.1" rx="5" ry="4"/>
		<ellipse class="st5" cx="368.5" cy="129.1" rx="5" ry="4"/>
		<ellipse class="st5" cx="420.5" cy="129.1" rx="5" ry="4"/>
		<ellipse class="st5" cx="433.5" cy="129.1" rx="5" ry="4"/>
		<ellipse class="st5" cx="446.5" cy="129.1" rx="5" ry="4"/>
		<ellipse class="st5" cx="497.5" cy="129.1" rx="5" ry="4"/>
		<ellipse class="st5" cx="511" cy="129.1" rx="5.5" ry="4"/>
		<ellipse class="st5" cx="523.5" cy="129.1" rx="5" ry="4"/>
		<ellipse class="st5" cx="5.5" cy="36.1" rx="5" ry="4"/>
		<ellipse class="st5" cx="19" cy="36.1" rx="5.5" ry="4"/>
		<ellipse class="st5" cx="32.5" cy="36.1" rx="5" ry="4"/>
		<ellipse class="st5" cx="57.5" cy="36.1" rx="5" ry="4"/>
		<ellipse class="st5" cx="83" cy="36.1" rx="5.5" ry="4"/>
		<ellipse class="st5" cx="200" cy="36.1" rx="5.5" ry="4"/>
		<ellipse class="st5" cx="213" cy="36.1" rx="5.5" ry="4"/>
		<ellipse class="st5" cx="238" cy="36.1" rx="5.5" ry="4"/>
		<ellipse class="st5" cx="252" cy="36.1" rx="5.5" ry="4"/>
		<ellipse class="st5" cx="265" cy="36.1" rx="5.5" ry="4"/>
		<ellipse class="st5" cx="328.5" cy="36.1" rx="5" ry="4"/>
		<ellipse class="st5" cx="342" cy="36.1" rx="5.5" ry="4"/>
		<ellipse class="st5" cx="355.5" cy="36.1" rx="5" ry="4"/>
		<ellipse class="st5" cx="368.5" cy="36.1" rx="5" ry="4"/>
		<ellipse class="st5" cx="420.5" cy="36.1" rx="5" ry="4"/>
		<ellipse class="st5" cx="433.5" cy="36.1" rx="5" ry="4"/>
		<ellipse class="st5" cx="446.5" cy="36.1" rx="5" ry="4"/>
		<ellipse class="st5" cx="497.5" cy="36.1" rx="5" ry="4"/>
		<ellipse class="st5" cx="511" cy="36.1" rx="5.5" ry="4"/>
		<ellipse class="st5" cx="523.5" cy="36.1" rx="5" ry="4"/>
	</g>
	<g id="breaks">
		<line class="st6" x1="64.8" y1="216.6" x2="64" y2="253.5"/>
		<line class="st6" x1="243.8" y1="216.6" x2="243" y2="253.5"/>
		<line class="st6" x1="348.8" y1="216.6" x2="348" y2="253.5"/>
		<line class="st6" x1="440.8" y1="216.6" x2="440" y2="253.5"/>
		<line class="st6" x1="108.8" y1="112.6" x2="108" y2="149.5"/>
		<line class="st6" x1="212.8" y1="112.6" x2="212" y2="149.5"/>
		<line class="st6" x1="315.8" y1="113.6" x2="315" y2="150.5"/>
		<line class="st6" x1="419.8" y1="112.6" x2="419" y2="149.5"/>
		<line class="st6" x1="92.1" y1="18.3" x2="91.3" y2="55.2"/>
		<line class="st6" x1="276.1" y1="18.1" x2="275.3" y2="55"/>
		<line class="st6" x1="379.1" y1="18.6" x2="378.3" y2="55.6"/>
		<line class="st6" x1="456" y1="19.2" x2="455.2" y2="56.1"/>
	</g>
</g>
</svg>
