<svg xmlns="http://www.w3.org/2000/svg" viewBox="0 0 531.7 381.97"><defs><style>.cls-1,.cls-10,.cls-11,.cls-12,.cls-13,.cls-2,.cls-3,.cls-4,.cls-8,.cls-9{font-size:14px;}.cls-1,.cls-10,.cls-14,.cls-16,.cls-18,.cls-2,.cls-3,.cls-8,.cls-9{fill:#fff;stroke:#fff;}.cls-1,.cls-10,.cls-16,.cls-17,.cls-2,.cls-3,.cls-8,.cls-9{stroke-miterlimit:10;}.cls-1,.cls-2,.cls-3,.cls-4{font-family:Corbel, Corbel;}.cls-1{letter-spacing:-0.01em;}.cls-2{letter-spacing:0em;}.cls-4{letter-spacing:0em;}.cls-5,.cls-6,.cls-7{font-size:12px;}.cls-10,.cls-11,.cls-12,.cls-13,.cls-5,.cls-6,.cls-7,.cls-8,.cls-9{font-family:ArialMT, Arial;}.cls-5{letter-spacing:0em;}.cls-7{letter-spacing:0em;}.cls-12,.cls-9{letter-spacing:0em;}.cls-10,.cls-13{letter-spacing:-0.02em;}.cls-11,.cls-12,.cls-13{fill:#7f7f7f;}.cls-14,.cls-15,.cls-18,.cls-19,.cls-20{stroke-linejoin:round;}.cls-14,.cls-15{stroke-width:0.6px;}.cls-15,.cls-19,.cls-20{fill:none;}.cls-15{stroke:#a3a3a3;}.cls-17{fill:#e7d749;stroke:#231f20;}.cls-18,.cls-19,.cls-20{stroke-width:2px;}.cls-18,.cls-19{stroke-dasharray:6 2;}.cls-19,.cls-20{stroke:#4b1214;}.cls-20{stroke-dasharray:2 2;}</style></defs><title>Asset 13</title><g id="Layer_2" data-name="Layer 2"><g id="text"><text class="cls-1" transform="translate(170.09 209.07)">Quantile (equal number of features)</text><text class="cls-2" transform="translate(173.28 105.07)">Equal Interval (equal range of values)</text><text class="cls-3" transform="translate(234.22 12.07)">Natural Breaks</text><text class="cls-4" transform="translate(217.3 307.07)">Standard Deviation</text><text class="cls-5" transform="translate(264.6 378.07)">mean</text><text class="cls-6" transform="translate(79.34 378.07)">-1 SD</text><text class="cls-7" transform="translate(442.03 378.07)">+1 SD</text><text class="cls-8" transform="translate(1.48 67.07)">0</text><text class="cls-8" transform="translate(131.13 67.07)">5</text><text class="cls-9" transform="translate(257.6 67.07)">10</text><text class="cls-9" transform="translate(387.25 67.07)">15</text><text class="cls-10" transform="translate(516.1 67.07)">20</text><text class="cls-8" transform="translate(1.48 161.07)">0</text><text class="cls-8" transform="translate(131.13 161.07)">5</text><text class="cls-9" transform="translate(257.6 161.07)">10</text><text class="cls-9" transform="translate(387.25 161.07)">15</text><text class="cls-10" transform="translate(516.1 161.07)">20</text><text class="cls-8" transform="translate(1.48 265.07)">0</text><text class="cls-8" transform="translate(131.13 265.07)">5</text><text class="cls-9" transform="translate(257.6 265.07)">10</text><text class="cls-9" transform="translate(387.25 265.07)">15</text><text class="cls-10" transform="translate(516.1 265.07)">20</text><text class="cls-11" transform="translate(1.48 366.07)">0</text><text class="cls-11" transform="translate(131.13 366.07)">5</text><text class="cls-12" transform="translate(257.6 366.07)">10</text><text class="cls-12" transform="translate(387.25 366.07)">15</text><text class="cls-13" transform="translate(516.1 366.07)">20</text></g><g id="boxes_and_ticks" data-name="boxes and ticks"><line class="cls-14" x1="4.5" y1="246.57" x2="523.72" y2="246.67"/><line class="cls-14" x1="134.62" y1="240.57" x2="134.5" y2="252.9"/><line class="cls-14" x1="160.62" y1="240.57" x2="160.5" y2="252.9"/><line class="cls-14" x1="186.62" y1="240.57" x2="186.5" y2="252.9"/><line class="cls-14" x1="212.62" y1="240.57" x2="212.5" y2="252.9"/><line class="cls-14" x1="238.62" y1="240.57" x2="238.5" y2="252.9"/><line class="cls-14" x1="264.62" y1="240.57" x2="264.5" y2="252.9"/><line class="cls-14" x1="290.62" y1="240.57" x2="290.5" y2="252.9"/><line class="cls-14" x1="316.62" y1="240.57" x2="316.5" y2="252.9"/><line class="cls-14" x1="342.62" y1="240.57" x2="342.5" y2="252.9"/><line class="cls-14" x1="367.62" y1="240.57" x2="367.5" y2="252.9"/><line class="cls-14" x1="393.62" y1="240.57" x2="393.5" y2="252.9"/><line class="cls-14" x1="419.62" y1="240.57" x2="419.5" y2="252.9"/><line class="cls-14" x1="445.62" y1="240.57" x2="445.5" y2="252.9"/><line class="cls-14" x1="471.62" y1="240.57" x2="471.5" y2="252.9"/><line class="cls-14" x1="497.62" y1="240.57" x2="497.5" y2="252.9"/><line class="cls-14" x1="523.62" y1="240.57" x2="523.5" y2="252.9"/><line class="cls-14" x1="108.62" y1="240.57" x2="108.5" y2="252.9"/><line class="cls-14" x1="82.62" y1="240.57" x2="82.5" y2="252.9"/><line class="cls-14" x1="56.62" y1="240.57" x2="56.5" y2="252.9"/><line class="cls-14" x1="30.62" y1="240.57" x2="30.5" y2="252.9"/><line class="cls-14" x1="5.62" y1="240.57" x2="5.5" y2="252.9"/><ellipse class="cls-14" cx="5.5" cy="234.07" rx="5" ry="4.5"/><ellipse class="cls-14" cx="19" cy="234.07" rx="5.5" ry="4.5"/><ellipse class="cls-14" cx="32.5" cy="234.07" rx="5" ry="4.5"/><ellipse class="cls-14" cx="57.5" cy="234.07" rx="5" ry="4.5"/><ellipse class="cls-14" cx="83" cy="234.07" rx="5.5" ry="4.5"/><ellipse class="cls-14" cx="200" cy="234.07" rx="5.5" ry="4.5"/><ellipse class="cls-14" cx="213" cy="234.07" rx="5.5" ry="4.5"/><ellipse class="cls-14" cx="238" cy="234.07" rx="5.5" ry="4.5"/><ellipse class="cls-14" cx="252" cy="234.07" rx="5.5" ry="4.5"/><ellipse class="cls-14" cx="265" cy="234.07" rx="5.5" ry="4.5"/><ellipse class="cls-14" cx="328.5" cy="234.07" rx="5" ry="4.5"/><ellipse class="cls-14" cx="342" cy="234.07" rx="5.5" ry="4.5"/><ellipse class="cls-14" cx="355.5" cy="234.07" rx="5" ry="4.5"/><ellipse class="cls-14" cx="368.5" cy="234.07" rx="5" ry="4.5"/><ellipse class="cls-14" cx="420.5" cy="234.07" rx="5" ry="4.5"/><ellipse class="cls-14" cx="433.5" cy="234.07" rx="5" ry="4.5"/><ellipse class="cls-14" cx="446.5" cy="234.07" rx="5" ry="4.5"/><ellipse class="cls-14" cx="497.5" cy="234.07" rx="5" ry="4.5"/><ellipse class="cls-14" cx="511" cy="234.07" rx="5.5" ry="4.5"/><ellipse class="cls-14" cx="523.5" cy="234.07" rx="5" ry="4.5"/><line class="cls-14" x1="4.5" y1="141.57" x2="523.72" y2="141.67"/><line class="cls-14" x1="134.62" y1="135.57" x2="134.5" y2="147.91"/><line class="cls-14" x1="160.62" y1="135.57" x2="160.5" y2="147.91"/><line class="cls-14" x1="186.62" y1="135.57" x2="186.5" y2="147.91"/><line class="cls-14" x1="212.62" y1="135.57" x2="212.5" y2="147.91"/><line class="cls-14" x1="238.62" y1="135.57" x2="238.5" y2="147.91"/><line class="cls-14" x1="264.62" y1="135.57" x2="264.5" y2="147.91"/><line class="cls-14" x1="290.62" y1="135.57" x2="290.5" y2="147.91"/><line class="cls-14" x1="316.62" y1="135.57" x2="316.5" y2="147.91"/><line class="cls-14" x1="342.62" y1="135.57" x2="342.5" y2="147.91"/><line class="cls-14" x1="367.62" y1="135.57" x2="367.5" y2="147.91"/><line class="cls-14" x1="393.62" y1="135.57" x2="393.5" y2="147.91"/><line class="cls-14" x1="419.62" y1="135.57" x2="419.5" y2="147.91"/><line class="cls-14" x1="445.62" y1="135.57" x2="445.5" y2="147.91"/><line class="cls-14" x1="471.62" y1="135.57" x2="471.5" y2="147.91"/><line class="cls-14" x1="497.62" y1="135.57" x2="497.5" y2="147.91"/><line class="cls-14" x1="523.62" y1="135.57" x2="523.5" y2="147.91"/><line class="cls-14" x1="108.62" y1="135.57" x2="108.5" y2="147.91"/><line class="cls-14" x1="82.62" y1="135.57" x2="82.5" y2="147.91"/><line class="cls-14" x1="56.62" y1="135.57" x2="56.5" y2="147.91"/><line class="cls-14" x1="30.62" y1="135.57" x2="30.5" y2="147.91"/><line class="cls-14" x1="5.62" y1="135.57" x2="5.5" y2="147.91"/><ellipse class="cls-14" cx="5.5" cy="129.57" rx="5" ry="4"/><ellipse class="cls-14" cx="19" cy="129.57" rx="5.5" ry="4"/><ellipse class="cls-14" cx="32.5" cy="129.57" rx="5" ry="4"/><ellipse class="cls-14" cx="57.5" cy="129.57" rx="5" ry="4"/><ellipse class="cls-14" cx="83" cy="129.57" rx="5.5" ry="4"/><ellipse class="cls-14" cx="200" cy="129.57" rx="5.5" ry="4"/><ellipse class="cls-14" cx="213" cy="129.57" rx="5.5" ry="4"/><ellipse class="cls-14" cx="238" cy="129.57" rx="5.5" ry="4"/><ellipse class="cls-14" cx="252" cy="129.57" rx="5.5" ry="4"/><ellipse class="cls-14" cx="265" cy="129.57" rx="5.5" ry="4"/><ellipse class="cls-14" cx="328.5" cy="129.57" rx="5" ry="4"/><ellipse class="cls-14" cx="342" cy="129.57" rx="5.5" ry="4"/><ellipse class="cls-14" cx="355.5" cy="129.57" rx="5" ry="4"/><ellipse class="cls-14" cx="368.5" cy="129.57" rx="5" ry="4"/><ellipse class="cls-14" cx="420.5" cy="129.57" rx="5" ry="4"/><ellipse class="cls-14" cx="433.5" cy="129.57" rx="5" ry="4"/><ellipse class="cls-14" cx="446.5" cy="129.57" rx="5" ry="4"/><ellipse class="cls-14" cx="497.5" cy="129.57" rx="5" ry="4"/><ellipse class="cls-14" cx="511" cy="129.57" rx="5.5" ry="4"/><ellipse class="cls-14" cx="523.5" cy="129.57" rx="5" ry="4"/><line class="cls-14" x1="4.5" y1="48.57" x2="523.72" y2="48.67"/><ellipse class="cls-14" cx="5.5" cy="36.57" rx="5" ry="4"/><ellipse class="cls-14" cx="19" cy="36.57" rx="5.5" ry="4"/><ellipse class="cls-14" cx="32.5" cy="36.57" rx="5" ry="4"/><ellipse class="cls-14" cx="57.5" cy="36.57" rx="5" ry="4"/><ellipse class="cls-14" cx="83" cy="36.57" rx="5.5" ry="4"/><ellipse class="cls-14" cx="200" cy="36.57" rx="5.5" ry="4"/><ellipse class="cls-14" cx="213" cy="36.57" rx="5.5" ry="4"/><ellipse class="cls-14" cx="238" cy="36.57" rx="5.5" ry="4"/><ellipse class="cls-14" cx="252" cy="36.57" rx="5.5" ry="4"/><ellipse class="cls-14" cx="265" cy="36.57" rx="5.5" ry="4"/><ellipse class="cls-14" cx="328.5" cy="36.57" rx="5" ry="4"/><ellipse class="cls-14" cx="342" cy="36.57" rx="5.5" ry="4"/><ellipse class="cls-14" cx="355.5" cy="36.57" rx="5" ry="4"/><ellipse class="cls-14" cx="368.5" cy="36.57" rx="5" ry="4"/><ellipse class="cls-14" cx="420.5" cy="36.57" rx="5" ry="4"/><ellipse class="cls-14" cx="433.5" cy="36.57" rx="5" ry="4"/><ellipse class="cls-14" cx="446.5" cy="36.57" rx="5" ry="4"/><ellipse class="cls-14" cx="497.5" cy="36.57" rx="5" ry="4"/><ellipse class="cls-14" cx="511" cy="36.57" rx="5.5" ry="4"/><ellipse class="cls-14" cx="523.5" cy="36.57" rx="5" ry="4"/><line class="cls-15" x1="4.5" y1="346.57" x2="523.72" y2="346.67"/><line class="cls-15" x1="134.62" y1="340.57" x2="134.5" y2="352.91"/><line class="cls-15" x1="160.62" y1="340.57" x2="160.5" y2="352.91"/><line class="cls-15" x1="186.62" y1="340.57" x2="186.5" y2="352.91"/><line class="cls-15" x1="212.62" y1="340.57" x2="212.5" y2="352.91"/><line class="cls-15" x1="238.62" y1="340.57" x2="238.5" y2="352.91"/><line class="cls-15" x1="264.62" y1="340.57" x2="264.5" y2="352.91"/><line class="cls-15" x1="290.62" y1="340.57" x2="290.5" y2="352.91"/><line class="cls-15" x1="316.62" y1="340.57" x2="316.5" y2="352.91"/><line class="cls-15" x1="342.62" y1="340.57" x2="342.5" y2="352.91"/><line class="cls-15" x1="367.62" y1="340.57" x2="367.5" y2="352.91"/><line class="cls-15" x1="393.62" y1="340.57" x2="393.5" y2="352.91"/><line class="cls-15" x1="419.62" y1="340.57" x2="419.5" y2="352.91"/><line class="cls-15" x1="445.62" y1="340.57" x2="445.5" y2="352.91"/><line class="cls-15" x1="471.62" y1="340.57" x2="471.5" y2="352.91"/><line class="cls-15" x1="497.62" y1="340.57" x2="497.5" y2="352.91"/><line class="cls-15" x1="523.62" y1="340.57" x2="523.5" y2="352.91"/><line class="cls-15" x1="108.62" y1="340.57" x2="108.5" y2="352.91"/><line class="cls-15" x1="82.62" y1="340.57" x2="82.5" y2="352.91"/><line class="cls-15" x1="56.62" y1="340.57" x2="56.5" y2="352.91"/><line class="cls-15" x1="30.62" y1="340.57" x2="30.5" y2="352.91"/><line class="cls-15" x1="5.62" y1="340.57" x2="5.5" y2="352.91"/><ellipse class="cls-15" cx="5.5" cy="334.07" rx="5" ry="4.5"/><ellipse class="cls-15" cx="19" cy="334.07" rx="5.5" ry="4.5"/><ellipse class="cls-15" cx="32.5" cy="334.07" rx="5" ry="4.5"/><ellipse class="cls-15" cx="57.5" cy="334.07" rx="5" ry="4.5"/><ellipse class="cls-15" cx="83" cy="334.07" rx="5.5" ry="4.5"/><ellipse class="cls-15" cx="200" cy="334.07" rx="5.5" ry="4.5"/><ellipse class="cls-15" cx="213" cy="334.07" rx="5.5" ry="4.5"/><ellipse class="cls-15" cx="238" cy="334.07" rx="5.5" ry="4.5"/><ellipse class="cls-15" cx="252" cy="334.07" rx="5.5" ry="4.5"/><ellipse class="cls-15" cx="265" cy="334.07" rx="5.5" ry="4.5"/><ellipse class="cls-15" cx="328.5" cy="334.07" rx="5" ry="4.5"/><ellipse class="cls-15" cx="342" cy="334.07" rx="5.5" ry="4.5"/><ellipse class="cls-15" cx="355.5" cy="334.07" rx="5" ry="4.5"/><ellipse class="cls-15" cx="368.5" cy="334.07" rx="5" ry="4.5"/><ellipse class="cls-15" cx="420.5" cy="334.07" rx="5" ry="4.5"/><ellipse class="cls-15" cx="433.5" cy="334.07" rx="5" ry="4.5"/><ellipse class="cls-15" cx="446.5" cy="334.07" rx="5" ry="4.5"/><ellipse class="cls-15" cx="497.5" cy="334.07" rx="5" ry="4.5"/><ellipse class="cls-15" cx="511" cy="334.07" rx="5.5" ry="4.5"/><ellipse class="cls-15" cx="523.5" cy="334.07" rx="5" ry="4.5"/><line class="cls-14" x1="134.62" y1="42.57" x2="134.5" y2="54.91"/><line class="cls-14" x1="160.62" y1="42.57" x2="160.5" y2="54.91"/><line class="cls-14" x1="186.62" y1="42.57" x2="186.5" y2="54.91"/><line class="cls-14" x1="212.62" y1="42.57" x2="212.5" y2="54.91"/><line class="cls-14" x1="238.62" y1="42.57" x2="238.5" y2="54.91"/><line class="cls-14" x1="264.62" y1="42.57" x2="264.5" y2="54.91"/><line class="cls-14" x1="290.62" y1="42.57" x2="290.5" y2="54.91"/><line class="cls-14" x1="316.62" y1="42.57" x2="316.5" y2="54.91"/><line class="cls-14" x1="342.62" y1="42.57" x2="342.5" y2="54.91"/><line class="cls-14" x1="367.62" y1="42.57" x2="367.5" y2="54.91"/><line class="cls-14" x1="393.62" y1="42.57" x2="393.5" y2="54.91"/><line class="cls-14" x1="419.62" y1="42.57" x2="419.5" y2="54.91"/><line class="cls-14" x1="445.62" y1="42.57" x2="445.5" y2="54.91"/><line class="cls-14" x1="471.62" y1="42.57" x2="471.5" y2="54.91"/><line class="cls-14" x1="497.62" y1="42.57" x2="497.5" y2="54.91"/><line class="cls-14" x1="523.62" y1="42.57" x2="523.5" y2="54.91"/><line class="cls-14" x1="108.62" y1="42.57" x2="108.5" y2="54.91"/><line class="cls-14" x1="82.62" y1="42.57" x2="82.5" y2="54.91"/><line class="cls-14" x1="56.62" y1="42.57" x2="56.5" y2="54.91"/><line class="cls-14" x1="30.62" y1="42.57" x2="30.5" y2="54.91"/><line class="cls-14" x1="5.62" y1="42.57" x2="5.5" y2="54.91"/></g><g id="balls"><ellipse class="cls-16" cx="5.5" cy="234.07" rx="5" ry="4.5"/><ellipse class="cls-16" cx="19" cy="234.07" rx="5.5" ry="4.5"/><ellipse class="cls-16" cx="32.5" cy="234.07" rx="5" ry="4.5"/><ellipse class="cls-16" cx="57.5" cy="234.07" rx="5" ry="4.5"/><ellipse class="cls-16" cx="83" cy="234.07" rx="5.5" ry="4.5"/><ellipse class="cls-16" cx="200" cy="234.07" rx="5.5" ry="4.5"/><ellipse class="cls-16" cx="213" cy="234.07" rx="5.5" ry="4.5"/><ellipse class="cls-16" cx="238" cy="234.07" rx="5.5" ry="4.5"/><ellipse class="cls-16" cx="252" cy="234.07" rx="5.5" ry="4.5"/><ellipse class="cls-16" cx="265" cy="234.07" rx="5.5" ry="4.5"/><ellipse class="cls-16" cx="328.5" cy="234.07" rx="5" ry="4.5"/><ellipse class="cls-16" cx="342" cy="234.07" rx="5.5" ry="4.5"/><ellipse class="cls-16" cx="355.5" cy="234.07" rx="5" ry="4.5"/><ellipse class="cls-16" cx="368.5" cy="234.07" rx="5" ry="4.5"/><ellipse class="cls-16" cx="420.5" cy="234.07" rx="5" ry="4.5"/><ellipse class="cls-16" cx="433.5" cy="234.07" rx="5" ry="4.5"/><ellipse class="cls-16" cx="446.5" cy="234.07" rx="5" ry="4.5"/><ellipse class="cls-16" cx="497.5" cy="234.07" rx="5" ry="4.5"/><ellipse class="cls-16" cx="511" cy="234.07" rx="5.5" ry="4.5"/><ellipse class="cls-16" cx="523.5" cy="234.07" rx="5" ry="4.5"/><ellipse class="cls-16" cx="5.5" cy="129.57" rx="5" ry="4"/><ellipse class="cls-16" cx="19" cy="129.57" rx="5.5" ry="4"/><ellipse class="cls-16" cx="32.5" cy="129.57" rx="5" ry="4"/><ellipse class="cls-16" cx="57.5" cy="129.57" rx="5" ry="4"/><ellipse class="cls-16" cx="83" cy="129.57" rx="5.5" ry="4"/><ellipse class="cls-16" cx="200" cy="129.57" rx="5.5" ry="4"/><ellipse class="cls-16" cx="213" cy="129.57" rx="5.5" ry="4"/><ellipse class="cls-16" cx="238" cy="129.57" rx="5.5" ry="4"/><ellipse class="cls-16" cx="252" cy="129.57" rx="5.5" ry="4"/><ellipse class="cls-16" cx="265" cy="129.57" rx="5.5" ry="4"/><ellipse class="cls-16" cx="328.5" cy="129.57" rx="5" ry="4"/><ellipse class="cls-16" cx="342" cy="129.57" rx="5.5" ry="4"/><ellipse class="cls-16" cx="355.5" cy="129.57" rx="5" ry="4"/><ellipse class="cls-16" cx="368.5" cy="129.57" rx="5" ry="4"/><ellipse class="cls-16" cx="420.5" cy="129.57" rx="5" ry="4"/><ellipse class="cls-16" cx="433.5" cy="129.57" rx="5" ry="4"/><ellipse class="cls-16" cx="446.5" cy="129.57" rx="5" ry="4"/><ellipse class="cls-16" cx="497.5" cy="129.57" rx="5" ry="4"/><ellipse class="cls-16" cx="511" cy="129.57" rx="5.5" ry="4"/><ellipse class="cls-16" cx="523.5" cy="129.57" rx="5" ry="4"/><ellipse class="cls-16" cx="5.5" cy="36.57" rx="5" ry="4"/><ellipse class="cls-16" cx="19" cy="36.57" rx="5.5" ry="4"/><ellipse class="cls-16" cx="32.5" cy="36.57" rx="5" ry="4"/><ellipse class="cls-16" cx="57.5" cy="36.57" rx="5" ry="4"/><ellipse class="cls-16" cx="83" cy="36.57" rx="5.5" ry="4"/><ellipse class="cls-16" cx="200" cy="36.57" rx="5.5" ry="4"/><ellipse class="cls-16" cx="213" cy="36.57" rx="5.5" ry="4"/><ellipse class="cls-16" cx="238" cy="36.57" rx="5.5" ry="4"/><ellipse class="cls-16" cx="252" cy="36.57" rx="5.5" ry="4"/><ellipse class="cls-16" cx="265" cy="36.57" rx="5.5" ry="4"/><ellipse class="cls-16" cx="328.5" cy="36.57" rx="5" ry="4"/><ellipse class="cls-16" cx="342" cy="36.57" rx="5.5" ry="4"/><ellipse class="cls-16" cx="355.5" cy="36.57" rx="5" ry="4"/><ellipse class="cls-16" cx="368.5" cy="36.57" rx="5" ry="4"/><ellipse class="cls-16" cx="420.5" cy="36.57" rx="5" ry="4"/><ellipse class="cls-16" cx="433.5" cy="36.57" rx="5" ry="4"/><ellipse class="cls-16" cx="446.5" cy="36.57" rx="5" ry="4"/><ellipse class="cls-16" cx="497.5" cy="36.57" rx="5" ry="4"/><ellipse class="cls-16" cx="511" cy="36.57" rx="5.5" ry="4"/><ellipse class="cls-16" cx="523.5" cy="36.57" rx="5" ry="4"/><ellipse class="cls-17" cx="5.5" cy="334.07" rx="5" ry="4.5"/><ellipse class="cls-17" cx="19" cy="334.07" rx="5.5" ry="4.5"/><ellipse class="cls-17" cx="32.5" cy="334.07" rx="5" ry="4.5"/><ellipse class="cls-17" cx="57.5" cy="334.07" rx="5" ry="4.5"/><ellipse class="cls-17" cx="83" cy="334.07" rx="5.5" ry="4.5"/><ellipse class="cls-17" cx="200" cy="334.07" rx="5.5" ry="4.5"/><ellipse class="cls-17" cx="213" cy="334.07" rx="5.5" ry="4.5"/><ellipse class="cls-17" cx="238" cy="334.07" rx="5.5" ry="4.5"/><ellipse class="cls-17" cx="252" cy="334.07" rx="5.5" ry="4.5"/><ellipse class="cls-17" cx="265" cy="334.07" rx="5.5" ry="4.5"/><ellipse class="cls-17" cx="328.5" cy="334.07" rx="5" ry="4.5"/><ellipse class="cls-17" cx="342" cy="334.07" rx="5.5" ry="4.5"/><ellipse class="cls-17" cx="355.5" cy="334.07" rx="5" ry="4.5"/><ellipse class="cls-17" cx="368.5" cy="334.07" rx="5" ry="4.5"/><ellipse class="cls-17" cx="420.5" cy="334.07" rx="5" ry="4.5"/><ellipse class="cls-17" cx="433.5" cy="334.07" rx="5" ry="4.5"/><ellipse class="cls-17" cx="446.5" cy="334.07" rx="5" ry="4.5"/><ellipse class="cls-17" cx="497.5" cy="334.07" rx="5" ry="4.5"/><ellipse class="cls-17" cx="511" cy="334.07" rx="5.5" ry="4.5"/><ellipse class="cls-17" cx="523.5" cy="334.07" rx="5" ry="4.5"/></g><g id="breaks"><line class="cls-18" x1="64.75" y1="217.07" x2="64" y2="254.02"/><line class="cls-18" x1="243.75" y1="217.07" x2="243" y2="254.02"/><line class="cls-18" x1="348.75" y1="217.07" x2="348" y2="254.02"/><line class="cls-18" x1="440.75" y1="217.07" x2="440" y2="254.02"/><line class="cls-18" x1="108.75" y1="113.07" x2="108" y2="150.02"/><line class="cls-18" x1="220.75" y1="113.07" x2="220" y2="150.02"/><line class="cls-18" x1="315.75" y1="114.07" x2="315" y2="151.02"/><line class="cls-18" x1="426.75" y1="113.07" x2="426" y2="150.02"/><line class="cls-18" x1="92.07" y1="18.78" x2="91.32" y2="55.74"/><line class="cls-18" x1="276.08" y1="18.56" x2="275.33" y2="55.52"/><line class="cls-18" x1="379.08" y1="19.12" x2="378.33" y2="56.08"/><line class="cls-18" x1="455.97" y1="19.68" x2="455.21" y2="56.64"/><line class="cls-19" x1="90.75" y1="317.07" x2="90" y2="354.03"/><line class="cls-19" x1="453.75" y1="317.07" x2="453" y2="354.03"/><line class="cls-20" x1="278" y1="314.07" x2="278.18" y2="366.51"/></g></g></svg>